<svg width="3553" height="5061" viewBox="0 0 3553 5061" fill="none" xmlns="http://www.w3.org/2000/svg">
<g filter="url(#filter0_f)">
<ellipse cx="1755.31" cy="4472.41" rx="1535" ry="295" transform="rotate(-8.1414 1755.31 4472.41)" fill="black" fill-opacity="0.39"/>
</g>
<g filter="url(#filter1_f)">
<ellipse cx="3005.15" cy="4735.68" rx="460.016" ry="197.368" transform="rotate(-8.1414 3005.15 4735.68)" fill="black" fill-opacity="0.39"/>
</g>
<path d="M232.783 4013.04L161.809 2090.99C193.139 2087.79 253.627 2037.28 265.392 2044.95C280.099 2054.54 304.396 2064.13 341.482 2065.41C378.567 2066.69 404.783 2078.2 413.095 2090.99C421.407 2103.77 512.842 2103.77 560.798 2103.77C608.753 2103.77 785.229 2121.04 808.887 2126.15C832.545 2131.27 1009.02 2208 1029.48 2235.49C1049.94 2262.99 1106.85 2347.39 1134.34 2346.11C1161.84 2344.83 1349.82 2394.06 1363.25 2407.49C1376.68 2420.92 1416.96 2425.4 1443.18 2427.95C1469.39 2430.51 1523.74 2508.52 1544.84 2526.42C1565.94 2544.32 1619.01 2537.93 1629.88 2537.93C1638.58 2537.93 1654.39 2479.53 1663.77 2485.5C1698.94 2483.16 1769.15 2491.89 1778.87 2504.68C1791.01 2520.67 1831.94 2594.2 1821.07 2609.54C1812.37 2621.82 1834.07 2954.4 1846 3119.15L1893.96 3912.01C1893.96 3982.99 1839.48 4078.13 1764.8 4110.87C1755.59 4134.4 1720.04 4152.64 1703.42 4158.82C1326.38 4175.45 534.966 4203.71 385.601 4183.76C236.235 4163.81 221.486 4061.63 232.783 4013.04Z" fill="#98BCC9"/>
<path d="M1764.8 4110.87C1755.59 4134.4 1720.04 4152.64 1703.42 4158.82C1326.38 4175.45 534.966 4203.71 385.601 4183.76C236.235 4163.81 221.486 4061.63 232.783 4013.04L161.809 2090.99C193.139 2087.79 253.627 2037.28 265.392 2044.95C280.099 2054.54 304.396 2064.13 341.482 2065.41C378.567 2066.69 404.783 2078.2 413.095 2090.99C421.407 2103.77 512.842 2103.77 560.798 2103.77C608.753 2103.77 785.229 2121.04 808.887 2126.15C832.545 2131.27 1009.02 2208 1029.48 2235.49C1049.94 2262.99 1106.85 2347.39 1134.34 2346.11C1161.84 2344.83 1349.82 2394.06 1363.25 2407.49C1376.68 2420.92 1416.96 2425.4 1443.18 2427.95C1469.39 2430.51 1523.74 2508.52 1544.84 2526.42C1565.94 2544.32 1619.01 2537.93 1629.88 2537.93C1638.58 2537.93 1654.39 2479.53 1663.77 2485.5M1764.8 4110.87C1774.01 4087.34 1699.58 2994.04 1663.77 2485.5M1764.8 4110.87C1839.48 4078.13 1893.96 3982.99 1893.96 3912.01L1846 3119.15C1834.07 2954.4 1812.37 2621.82 1821.07 2609.54C1831.94 2594.2 1791.01 2520.67 1778.87 2504.68C1769.15 2491.89 1698.94 2483.16 1663.77 2485.5" stroke="black" stroke-width="14"/>
<path d="M271.146 2093.55C262.45 2088.43 193.351 2091.41 159.889 2093.55C148.167 2087.15 121.013 2071.68 106.179 2060.94C87.6364 2047.51 87.6363 1982.29 87.6363 1969.5C87.6363 1956.71 95.9485 1910.04 87.6363 1893.41C79.324 1876.79 143.265 1848.65 168.841 1853.77C194.417 1858.88 255.8 1868.47 301.198 1848.65C346.596 1828.83 363.22 1845.46 381.763 1848.65C400.306 1851.85 473.198 1903.64 501.971 1923.46C530.744 1943.28 557.599 1905.56 587.012 1923.46C616.425 1941.37 629.213 1994.44 654.15 1969.5C679.087 1944.56 828.708 1982.29 875.384 1994.44C922.061 2006.59 1030.12 2099.3 1048.02 2121.68C1065.93 2144.06 1234.73 2205.44 1266.7 2207.36C1298.67 2209.28 1383.71 2280.25 1403.53 2304.55C1423.35 2328.85 1494.33 2351.23 1529.5 2363.37C1564.66 2375.52 1797.41 2413.25 1815.95 2418.36C1834.49 2423.48 1826.18 2482.3 1815.95 2503.4C1805.72 2524.5 1832.57 2568.62 1826.18 2583.97C1819.79 2599.32 1776.95 2562.23 1765.44 2548.8C1753.93 2535.37 1676.56 2548.8 1659.93 2543.69C1643.31 2538.57 1601.11 2550.72 1561.47 2548.8C1521.82 2546.88 1489.21 2517.47 1461.08 2503.4C1432.95 2489.34 1337.04 2498.93 1305.06 2475.27C1273.09 2451.61 1179.1 2374.24 1160.56 2356.34C1142.02 2338.44 1108.77 2354.42 1065.29 2351.23C1021.81 2348.03 845.971 2220.15 828.708 2199.05C811.444 2177.95 517.956 2199.69 484.707 2199.05C451.458 2198.41 381.763 2163.24 381.763 2128.07C381.763 2114.27 330.61 2112.73 309.51 2121.68C288.41 2130.63 282.016 2099.94 271.146 2093.55Z" fill="#FBDFDF" stroke="black" stroke-width="11" stroke-linecap="round" stroke-linejoin="round"/>
<path d="M677 2727.5C679.046 2742.33 677 2753.5 673.5 2760.74L617.5 2857C613.833 2854.83 605.6 2850.1 602 2848.5C598.4 2846.9 593.833 2836.83 592 2832L520 2758.5L500 2746.22L469.5 2727.5L465.241 2704.5L464.593 2701L462 2687L478.397 2674.77C479.472 2674.77 481.45 2672.06 484 2668.82C487.517 2664.35 504.681 2649.74 509.5 2649C515.821 2648.03 533.618 2672.19 525.857 2687.21L539.5 2665.5L584.538 2639.6C592.38 2646.62 604.697 2656.44 617.5 2666.4C625.465 2672.6 633.619 2678.84 641 2684.5L641.36 2684.77C655.802 2695.83 667.205 2704.56 668.3 2706.1C668.922 2706.97 669.811 2708.11 670.858 2709.51C675.189 2715.32 674.94 2712.57 677 2727.5Z" fill="#725535"/>
<path d="M584.538 2639.6L539.5 2665.5L524.434 2689.47M584.538 2639.6C592.38 2646.62 604.697 2656.44 617.5 2666.4M584.538 2639.6L574.549 2655.5M524.434 2689.47C535.5 2674.77 516.15 2647.98 509.5 2649C504.681 2649.74 487.517 2664.35 484 2668.82C481.45 2672.06 479.472 2674.77 478.397 2674.77L462 2687L464.593 2701L465.241 2704.5M524.434 2689.47L558.217 2681.5L574.549 2655.5M524.434 2689.47L602.086 2700.1M524.434 2689.47L532.5 2696.38M670.858 2709.51C675.189 2715.32 674.94 2712.57 677 2727.5C679.046 2742.33 677 2753.5 673.5 2760.74L617.5 2857C613.833 2854.83 605.6 2850.1 602 2848.5C598.4 2846.9 593.833 2836.83 592 2832M670.858 2709.51C669.811 2708.11 668.922 2706.97 668.3 2706.1C667.196 2704.55 655.612 2695.69 641 2684.5M670.858 2709.51L640 2764M670.858 2709.51L641 2725M670.858 2709.51L603.5 2700.29M592 2832L520 2758.5M592 2832L602 2817.83M640 2764L602 2817.83M640 2764L603.5 2782.5M640 2764L565.5 2760.59M640 2764L641 2725M640 2764L602.086 2700.1M640 2764L603.5 2743.5M520 2758.5L565.5 2760.59M520 2758.5L500 2746.22M602 2817.83L602.086 2817.04M603.5 2782.5L565.5 2760.59M603.5 2782.5L602.086 2817.04M565.5 2760.59L602.086 2817.04M565.5 2760.59L603.5 2700.29M565.5 2760.59L603.5 2743.5M565.5 2760.59L567.5 2715.5M565.5 2760.59L532.5 2696.38M565.5 2760.59L528.5 2734M565.5 2760.59L556 2782.5M641 2725L603.5 2700.29M641 2725L602.086 2700.1M603.5 2700.29L602.086 2700.1M603.5 2700.29L641 2684.5M602.086 2700.1L603.5 2743.5M602.086 2700.1L567.5 2715.5M602.086 2700.1L617.5 2666.4M602.086 2700.1L574.549 2655.5M567.5 2715.5L532.5 2696.38M532.5 2696.38L528.5 2734M532.5 2696.38L501.775 2743.5M532.5 2696.38L494 2702M532.5 2696.38L488 2668.82L494 2702M641 2684.5C633.619 2678.84 625.465 2672.6 617.5 2666.4M528.5 2734L500 2746.22M500 2746.22L469.5 2727.5L465.241 2704.5M500 2746.22L501.775 2743.5M501.775 2743.5L494 2702M494 2702L465.241 2704.5" stroke="black" stroke-width="4" stroke-linecap="round" stroke-linejoin="round"/>
<path d="M326.857 2865.95L381.207 2796.25L432.999 2736.79C429.162 2736.79 425.326 2722.08 424.047 2719.52C422.768 2716.97 418.932 2697.78 412.538 2692.03C406.144 2686.28 422.129 2686.28 449.623 2692.03C453.938 2692.93 457.277 2694.01 459.849 2695.23C463.747 2697.07 465.885 2699.24 466.994 2701.62C469.818 2707.68 465.979 2715.12 467.527 2722.08C470.084 2733.59 479.675 2736.79 500.136 2736.79C520.597 2736.79 514.203 2742.54 514.203 2747.66C514.203 2752.77 517.4 2759.81 528.91 2765.56C540.419 2771.32 546.174 2778.35 553.207 2784.1C560.241 2789.86 573.029 2810.96 584.538 2815.44C596.047 2819.91 589.653 2823.75 589.653 2830.78C589.653 2837.81 600.523 2851.24 606.917 2851.88C613.311 2852.52 616.508 2862.75 614.59 2862.11C612.672 2861.47 607.557 2869.78 603.081 2876.18L589.653 2895.36C589.394 2895.34 589.114 2895.32 588.819 2895.28C584.139 2894.87 576.068 2894.4 575.586 2895.36C574.947 2896.64 487.988 3022.6 479.675 3034.75C471.363 3046.9 432.999 3044.98 412.538 3045.62C392.077 3046.26 339.006 2997.03 321.742 2984.24C314.269 2978.7 308.115 2969.69 303.381 2960.58C297.179 2948.64 293.417 2936.52 292.33 2931.81C290.795 2925.16 310.766 2885.77 324.939 2867.87L326.857 2865.95Z" fill="#E47F7F"/>
<path d="M412.538 3045.62C392.077 3046.26 339.006 2997.03 321.742 2984.24C314.269 2978.7 308.115 2969.69 303.381 2960.58M412.538 3045.62C432.999 3044.98 471.363 3046.9 479.675 3034.75C487.988 3022.6 574.947 2896.64 575.586 2895.36C576.098 2894.34 585.177 2894.93 589.653 2895.36M412.538 3045.62L567.274 2854.44M589.653 2895.36C592.637 2891.1 599.5 2881.29 603.081 2876.18C607.557 2869.78 612.672 2861.47 614.59 2862.11C616.508 2862.75 613.311 2852.52 606.917 2851.88C600.523 2851.24 589.653 2837.81 589.653 2830.78C589.653 2823.75 596.047 2819.91 584.538 2815.44C573.029 2810.96 560.241 2789.86 553.207 2784.1C546.174 2778.35 540.419 2771.32 528.91 2765.56C517.4 2759.81 514.203 2752.77 514.203 2747.66C514.203 2742.54 520.597 2736.79 500.136 2736.79C479.675 2736.79 470.084 2733.59 467.527 2722.08C465.979 2715.12 469.818 2707.68 466.994 2701.62C465.885 2699.24 463.747 2697.07 459.849 2695.23C457.277 2694.01 453.938 2692.93 449.623 2692.03C422.129 2686.28 406.144 2686.28 412.538 2692.03C418.932 2697.78 422.768 2716.97 424.047 2719.52C425.326 2722.08 429.162 2736.79 432.999 2736.79M589.653 2895.36C586.669 2895.18 580.829 2893.77 581.341 2889.61C581.98 2884.4 580.701 2879.38 572.389 2876.18C564.077 2872.98 567.274 2862.11 567.274 2854.44M432.999 2736.79C436.835 2736.79 441.311 2745.1 443.229 2749.58C445.147 2754.05 443.869 2765.56 458.575 2765.56C473.281 2765.56 482.233 2763.64 484.791 2770.04C487.348 2776.43 493.742 2784.74 500.136 2790.5C505.252 2795.1 518.466 2801.37 524.434 2803.93C526.351 2805.31 528.85 2807.22 531.371 2809.29M432.999 2736.79L381.207 2796.25L326.857 2865.95L324.939 2867.87C310.766 2885.77 290.795 2925.16 292.33 2931.81C293.417 2936.52 297.179 2948.64 303.381 2960.58M567.274 2854.44C567.274 2846.77 555.765 2842.93 548.092 2842.93C540.419 2842.93 541.698 2826.31 542.337 2821.83C542.69 2819.36 536.978 2813.91 531.371 2809.29M303.381 2960.58C313.764 2960.79 335.937 2962.37 341.564 2966.97C348.597 2972.73 355.631 2986.8 364.582 2979.76C373.534 2972.73 363.943 2963.14 369.698 2954.83C375.452 2946.51 356.27 2970.81 381.207 2975.29C406.144 2979.76 413.817 2965.7 409.98 2958.66C406.144 2951.63 349.876 2903.03 347.958 2889.61C346.04 2876.18 364.582 2862.35 369.698 2869.78C374.813 2877.22 378.008 2904.31 372.255 2909.43C367.653 2913.52 410.833 2949.5 432.999 2966.97L414.456 2940.76C416.374 2930.95 420.978 2911.6 424.047 2912.62C427.884 2913.9 455.378 2940.76 467.527 2936.28C479.675 2931.81 484.151 2917.74 471.363 2904.95C458.575 2892.16 456.017 2882.57 454.099 2869.78C452.181 2857 454.739 2844.21 463.051 2849.32C471.363 2854.44 484.151 2881.29 475.839 2883.85C467.527 2886.41 465.608 2884.49 458.575 2876.18C451.542 2867.87 455.378 2849.32 467.527 2849.32C477.246 2849.32 465.608 2833.98 458.575 2826.31L507.17 2862.11C512.072 2859.34 520.725 2851.88 516.122 2844.21C510.367 2834.62 492.464 2819.27 488.627 2811.6C484.791 2803.93 490.545 2793.7 493.103 2796.25C495.661 2798.81 488.627 2807.76 493.103 2811.6C497.579 2815.44 515.482 2821.83 519.958 2821.83C523.539 2821.83 529.059 2813.47 531.371 2809.29" stroke="black" stroke-width="8" stroke-linecap="round" stroke-linejoin="round"/>
<path d="M569.681 2580.06C488.477 2560.88 451.391 2620.34 448.833 2638.89C445.57 2662.54 457.146 2687.48 461.621 2687.48C466.097 2687.48 480.804 2669.58 487.837 2662.54C493.464 2656.92 502.543 2656.36 506.38 2656.79C512.987 2665.53 526.841 2683.9 529.398 2687.48C531.956 2691.06 539.416 2677.04 542.826 2669.58L549.927 2662.54L569.681 2669.58C574.796 2666.17 578.609 2658.68 579.272 2649.76C579.979 2640.24 576.143 2642.16 583.816 2642.16C589.954 2642.16 605.342 2658.92 610.031 2662.54C624.098 2677.89 665.08 2697.33 670.707 2703.47C677.741 2711.14 693.086 2698.99 693.726 2669.58C694.365 2640.16 650.886 2599.24 569.681 2580.06Z" fill="black"/>
<path d="M269.881 4133.07C269.881 4133.07 284.312 4085.12 330.398 4055.8C330.398 4055.8 357.862 4034.85 406.275 4010.18C406.275 4010.18 471.911 3968.74 486.342 3955.71C486.342 3955.71 525.445 3925.45 537.083 3898.92C537.083 3898.92 551.978 3877.04 557.099 3862.61C557.099 3862.61 574.789 3850.04 564.547 3872.85C564.547 3872.85 550.116 3906.83 527.772 3933.83C527.772 3933.83 495.651 3964.09 464.464 3985.5C464.464 3985.5 426.758 4013.9 396.499 4027.87C396.499 4027.87 364.379 4047.88 353.672 4053.47C353.672 4053.47 320.622 4074.88 307.587 4093.97C307.587 4093.97 279.19 4123.76 280.123 4142.84L269.881 4133.07Z" fill="#1B1618"/>
<path d="M1019.35 2327.83L1010.27 2322.13L1014.81 2349.6C1014.81 2349.6 1030.05 2406.97 997.934 2464.69C997.934 2464.69 925.782 2437.23 887.609 2376.25C887.609 2376.25 832.015 2300.37 900.079 2272.44H910.419L912.28 2268.25L900.079 2260.34L897.85 2264.99C897.85 2264.99 845.714 2273.37 856.419 2349.71C856.419 2349.71 884.35 2451.2 1002.59 2513.57C1002.59 2513.57 1085.88 2548.28 1151.55 2558.26C1151.55 2558.26 1181.34 2593.37 1199.03 2631.81C1199.03 2631.81 1131.06 2649.5 1105.93 2649.5C1105.93 2649.5 1027.72 2656.95 991.41 2627.15C991.41 2627.15 988.625 2616.22 1004.22 2599.46C1004.22 2599.46 1027.03 2588.99 1032.85 2588.52L1048.91 2588.29C1048.91 2588.29 1046.58 2575.95 1043.79 2574.56C1043.79 2574.56 1035.64 2573.16 1034.71 2579.68C1034.71 2579.68 1001.19 2588.52 994.908 2592.95L979.081 2627.39C979.081 2627.39 973.96 2655.56 1000.26 2681.16C1000.26 2681.16 1003.93 2686.51 1027 2696.06C1027 2696.06 1063.1 2716.77 1075.44 2723.52C1075.44 2723.52 1136.65 2757.5 1144.1 2774.26C1144.1 2774.26 1173.89 2802.19 1189.72 2841.3C1189.72 2841.3 1169.24 2850.14 1154.81 2853.4C1154.81 2853.4 1068.69 2854.33 1007.24 2847.35C1007.24 2847.35 863.868 2828.73 816.852 2827.8C816.852 2827.8 814.99 2880.4 824.766 2892.97C824.766 2892.97 874.574 2926.48 916.005 2963.26C916.005 2963.26 840.127 2970.24 857.816 3017.72C857.816 3017.72 863.868 3043.32 892.264 3067.53C892.264 3067.53 921.126 3081.5 931.831 3083.82C931.831 3083.82 987.692 3121.53 994.21 3134.1C994.21 3134.1 1049.14 3193.68 1057.05 3205.79C1057.05 3205.79 1093.83 3264.91 1100.35 3278.87C1100.35 3278.87 1125.02 3355.21 1043.55 3363.59C1043.55 3363.59 1000.73 3366.39 963.951 3358.94C963.951 3358.94 755.405 3313.32 755.405 3404.09C755.405 3404.09 758.663 3455.3 787.99 3492.54C787.99 3492.54 855.023 3564.69 888.539 3584.24C888.539 3584.24 737.715 3570.28 681.389 3548.86C681.389 3548.86 644.615 3539.56 632.976 3534.43C632.976 3534.43 590.15 3513.02 488.204 3491.61C488.204 3491.61 452.825 3479.97 450.032 3478.57C450.032 3478.57 464.929 3408.28 445.377 3366.85C445.377 3366.85 396.965 3259.32 303.864 3286.78C303.864 3286.78 271.744 3295.63 279.656 3341.25C279.656 3341.25 289.898 3389.19 311.311 3417.13C311.311 3417.13 329.001 3451.57 369.034 3478.11C369.034 3478.11 408.603 3511.62 477.497 3537.23C477.497 3537.23 582.701 3573.54 635.769 3587.97C635.769 3587.97 684.647 3604.26 728.406 3608.45C728.406 3608.45 823.834 3678.74 829.42 3759.74C829.42 3759.74 806.378 3780.69 705.828 3798.14C705.828 3798.14 632.511 3817 537.548 3790.46C537.548 3790.46 518.418 3784.81 508.686 3779.29C508.686 3779.29 503.1 3757.88 532.427 3739.26C532.427 3739.26 563.946 3729.48 567.738 3733.21C567.738 3733.21 567.806 3714.12 565.013 3711.79L560.823 3718.77C560.823 3718.77 559.893 3725.76 550.581 3723.43C550.581 3723.43 493.324 3731.81 499.377 3779.29C499.377 3779.29 503.563 3884.03 700.939 3869.14C700.939 3869.14 845.247 3857.03 841.521 3759.28C841.521 3759.28 843.379 3689.45 753.071 3617.76C753.071 3617.76 749.819 3614.85 758.547 3613.8C758.547 3613.8 855.954 3635.45 920.194 3634.05C920.194 3634.05 929.97 3621.48 928.573 3590.76C928.573 3590.76 925.431 3577.14 917.401 3585.17C917.401 3585.17 890.867 3590.76 794.042 3483.7C794.042 3483.7 750.284 3421.32 787.523 3410.15C787.523 3410.15 797.765 3401.77 841.523 3404.56C841.523 3404.56 955.106 3413.87 980.243 3416.67C980.243 3416.67 1060.31 3424.12 1099.41 3381.29C1099.41 3381.29 1117.8 3350.21 1120.25 3346.72C1120.25 3346.72 1126.88 3327.87 1117.1 3319.84C1117.1 3319.84 1138.52 3281.67 1024 3150.4C1024 3150.4 983.966 3107.57 955.104 3087.09C955.104 3087.09 1022.14 3090.81 1006.31 3041.47C1006.31 3041.47 986.756 3000.5 916 2951.16L849.899 2899.02C849.899 2899.02 988.618 2924.16 1111.51 2912.99C1111.51 2912.99 1196.23 2906.47 1201.82 2872.95V2846.89C1201.82 2846.89 1187.85 2768.68 1067.75 2708.17C1067.75 2708.17 1188.78 2716.54 1207.4 2687.68C1207.4 2687.68 1226.96 2671.85 1212.06 2635.54C1212.06 2635.54 1202.75 2602.03 1169.23 2561.06C1169.23 2561.06 1253.02 2572.23 1292.13 2583.41C1292.13 2583.41 1312.61 2568.51 1292.13 2534.99C1292.13 2534.99 1284.68 2517.3 1277.23 2527.54C1277.23 2527.54 1203.69 2467.61 1190.07 2390.8L1187.28 2389.06V2383.82H1180.99L1180.3 2387.66L1176.11 2386.96C1176.11 2386.96 1182.74 2419.43 1202.64 2450.85C1202.64 2450.85 1236.16 2509.16 1262.34 2526.61L1260.6 2529.06C1260.6 2529.06 1156.21 2511.25 1126.18 2502.87C1126.18 2502.87 1025.98 2480.53 1009.92 2467.96L1007.83 2467.26C1007.83 2467.26 1044.48 2427.46 1019.35 2328.31" fill="#1B1618"/>
<path d="M411.816 2516.2C401.585 2516.2 391.355 2522.59 391.355 2498.29C391.175 2493.18 395.83 2475.91 409.258 2476.55C422.685 2477.19 431.637 2488.7 430.358 2498.29C429.08 2507.88 422.046 2516.2 411.816 2516.2Z" fill="black"/>
<path d="M758.373 2512.36C751.34 2513 746.225 2501.49 744.946 2491.9C744.946 2486.78 748.143 2476.17 760.931 2474.64C776.916 2472.72 779.474 2484.23 780.113 2491.9C780.753 2499.57 765.407 2511.72 758.373 2512.36Z" fill="black"/>
<path d="M2194.48 3662.65C2188.85 3673.91 2235.61 3692.49 2259.7 3700.38C2267.37 3679.7 2283.1 3635.54 2284.63 3624.29C2286.55 3610.22 2245.63 3611.5 2222.61 3612.78C2199.59 3614.06 2201.51 3648.59 2194.48 3662.65Z" fill="black" stroke="black"/>
<path d="M407.71 2843.31C385.832 2855.47 357.425 2844.21 345.957 2837.06L398.888 2765.57C407.122 2767.35 426.06 2773.07 435.941 2781.65C448.292 2792.37 435.059 2828.12 407.71 2843.31Z" fill="black"/>
<path d="M589.57 4700.41C649.418 4713.71 701.04 4665.45 719.369 4639.66L714.721 4509.86C625.67 4484.29 500.053 4579.56 493.02 4619.84C485.986 4660.12 514.76 4683.78 589.57 4700.41Z" fill="black"/>
<path d="M1099.82 4594.27C1096.75 4676.62 1247.31 4634.55 1322.97 4603.22L1315.4 4465.75C1274.58 4397.97 1103.65 4491.32 1099.82 4594.27Z" fill="black"/>
<path d="M186.745 2685C93.8176 2746.81 -64.1583 2896.52 47.3541 3000.87C158.866 3105.22 275.835 3032.41 320.38 2982.96M1761.6 2991.92C1823.62 3012.38 2015.44 3041.15 2086.42 3441.42M703.384 4193.36L714.72 4509.86M714.72 4509.86L719.369 4639.66C701.04 4665.45 649.418 4713.71 589.57 4700.41C514.76 4683.78 485.986 4660.12 493.02 4619.84C500.053 4579.56 625.67 4484.29 714.72 4509.86ZM1299.31 4173.54L1315.4 4465.75M1315.4 4465.75L1322.97 4603.22C1247.31 4634.55 1096.75 4676.62 1099.82 4594.27C1103.65 4491.32 1274.58 4397.97 1315.4 4465.75ZM345.957 2837.06C357.425 2844.21 385.832 2855.47 407.71 2843.31C435.059 2828.12 448.292 2792.37 435.941 2781.65C426.06 2773.07 407.122 2767.35 398.888 2765.57L345.957 2837.06Z" stroke="black" stroke-width="17" stroke-linecap="round"/>
<path d="M2637.59 4808.47L2615.21 4622.4L2721.35 4573.8L3071.74 4588.51L3085.17 4777.14L3041.69 4808.47C3035.79 4808.68 3029.19 4808.7 3022.06 4808.47H2637.59Z" fill="#E47F7F"/>
<path d="M2615.21 4622.4L2637.59 4808.47M2615.21 4622.4C2666.79 4614.94 2779.66 4621.5 2818.54 4707.44M2615.21 4622.4H3027.62M2615.21 4622.4L2721.35 4573.8L3071.74 4588.51M2637.59 4808.47H3041.69M2637.59 4808.47C2670.41 4774.79 2752.55 4707.44 2818.54 4707.44M3041.69 4808.47C2983.5 4810.6 2857.41 4793.38 2818.54 4707.44M3041.69 4808.47C3032.53 4716.18 3016.88 4549.76 3027.62 4622.4M3041.69 4808.47L3085.17 4777.14L3071.74 4588.51M2818.54 4707.44C2892.71 4709.36 3038.37 4695.04 3027.62 4622.4M3027.62 4622.4L3071.74 4588.51" stroke="black" stroke-width="16"/>
<path d="M2053.81 3486.82C2045.62 3470.45 2075.55 3461.24 2091.53 3458.68C2099.85 3456.98 2122.61 3451.78 2147.16 3444.61C2177.85 3435.66 2199.59 3410.09 2199.59 3444.61C2199.59 3479.14 2185.53 3517.51 2213.02 3517.51C2240.51 3517.51 2237.32 3537.97 2275.68 3537.97C2314.05 3537.97 2326.83 3526.46 2316.6 3552.67C2306.37 3578.89 2288.47 3611.5 2275.68 3619.81C2265.45 3626.46 2262.89 3666.49 2262.89 3685.67C2267.16 3687.59 2275.68 3693.47 2275.68 3701.66C2275.68 3711.89 2289.11 3739.38 2262.89 3745.14C2256.83 3746.47 2250.38 3747.18 2243.71 3747.5C2254.37 3755.23 2280.29 3777.23 2298.7 3803.32C2298.7 3815.04 2300.87 3839.9 2309.57 3845.52C2318.27 3851.15 2340.9 3847.87 2351.13 3845.52C2385.66 3854.47 2377.35 3890.28 2399.73 3897.95C2422.11 3905.63 2468.78 3982.52 2505.23 4004.26C2554.89 4021.26 2654.21 4058.96 2654.21 4073.79C2709.2 4084.02 2736.05 4206.79 2745.01 4240.67C2753.96 4274.56 2709.84 4378.79 2666.36 4420.35C2622.88 4461.91 2545.51 4477.26 2491.8 4488.76C2438.09 4500.27 2327.47 4459.99 2262.89 4440.17C2211.23 4424.31 2139.91 4458.29 2110.72 4477.26C2076.61 4493.88 1994.73 4517.15 1939.99 4477.26C1871.58 4427.38 1886.28 4383.9 1861.35 4291.83C1836.41 4199.75 1919.53 4006.01 1939.99 3996.42C1961.95 3967.28 2006.36 3906.78 2008.41 3897.95C2017.36 3874.29 2005.85 3812.91 2018.64 3782.86C2028.87 3758.82 2046.35 3738.43 2053.81 3731.24L2149.41 3739.42C2144.22 3737.22 2137.8 3734.89 2125.42 3733.45C2121.26 3732.97 2116.41 3732.59 2110.72 3732.35C2103.74 3732.05 2097.35 3731.68 2091.53 3731.24C2059.45 3728.8 2044.66 3724.14 2043.58 3717.64C2042.3 3709.97 2059.56 3676.72 2079.38 3676.72C2068.73 3645.6 2044.86 3580.68 2034.63 3569.94C2021.84 3556.51 2002.66 3544.36 2018.64 3537.97C2031.43 3532.85 2055.05 3522.2 2065.27 3517.51C2061.2 3505.42 2057.42 3494.04 2053.81 3486.82Z" fill="#FBDFDF"/>
<path d="M2125.42 3685.67C2119.45 3650.08 2104.32 3577.1 2091.53 3569.94C2081.19 3564.15 2072.73 3539.64 2065.27 3517.51M2125.42 3685.67L2091.53 3679.08M2125.42 3685.67C2126.03 3689.15 2147.84 3689.95 2175.3 3689.52M2079.38 3676.72C2068.73 3645.6 2044.86 3580.68 2034.63 3569.94C2021.84 3556.51 2002.66 3544.36 2018.64 3537.97C2031.43 3532.85 2055.05 3522.2 2065.27 3517.51M2079.38 3676.72C2059.56 3676.72 2042.3 3709.97 2043.58 3717.64C2044.66 3724.14 2059.45 3728.8 2091.53 3731.24M2079.38 3676.72L2091.53 3679.08M2065.27 3517.51C2061.2 3505.42 2057.42 3494.04 2053.81 3486.82C2045.62 3470.45 2075.55 3461.24 2091.53 3458.68C2099.85 3456.98 2122.61 3451.78 2147.16 3444.61C2177.85 3435.66 2199.59 3410.09 2199.59 3444.61C2199.59 3479.14 2185.53 3517.51 2213.02 3517.51C2240.51 3517.51 2237.32 3537.97 2275.68 3537.97C2314.05 3537.97 2326.83 3526.46 2316.6 3552.67C2306.37 3578.89 2288.47 3611.5 2275.68 3619.81C2265.45 3626.46 2262.89 3666.49 2262.89 3685.67M2262.89 3685.67C2267.16 3687.59 2275.68 3693.47 2275.68 3701.66C2275.68 3711.89 2289.11 3739.38 2262.89 3745.14C2256.83 3746.47 2250.38 3747.18 2243.71 3747.5M2262.89 3685.67C2251.6 3686.41 2237.48 3687.23 2222.61 3687.93M2175.3 3745.14C2150.69 3745.14 2154.49 3736.82 2125.42 3733.45M2175.3 3745.14V3689.52M2175.3 3745.14C2196.92 3745.14 2221.56 3748.53 2243.71 3747.5M2125.42 3691.43V3733.45M2125.42 3733.45C2121.26 3732.97 2116.41 3732.59 2110.72 3732.35C2103.74 3732.05 2097.35 3731.68 2091.53 3731.24M2091.53 3731.24V3679.08M2175.3 3689.52C2190.23 3689.28 2206.84 3688.67 2222.61 3687.93M2227.73 3745.14C2226.02 3731.51 2222.61 3700.99 2222.61 3687.93M2399.73 3897.95C2422.11 3905.63 2468.78 3982.52 2505.23 4004.26C2554.89 4021.26 2654.21 4058.96 2654.21 4073.79C2709.2 4084.02 2736.05 4206.79 2745.01 4240.67C2753.96 4274.56 2709.84 4378.79 2666.36 4420.35C2622.88 4461.91 2545.51 4477.25 2491.8 4488.76C2438.09 4500.27 2327.47 4459.99 2262.89 4440.17C2211.23 4424.31 2139.91 4458.29 2110.72 4477.25C2076.61 4493.88 1994.73 4517.15 1939.99 4477.25C1871.58 4427.38 1886.28 4383.9 1861.35 4291.83C1836.41 4199.75 1919.53 4006.01 1939.99 3996.42C1961.95 3967.28 2006.36 3906.78 2008.41 3897.95C2017.36 3874.29 2005.85 3812.91 2018.64 3782.86C2028.87 3758.82 2046.35 3738.43 2053.81 3731.24L2243.71 3747.5M2399.73 3897.95C2377.35 3890.28 2385.66 3854.47 2351.13 3845.52C2340.9 3847.87 2318.27 3851.15 2309.57 3845.52C2300.87 3839.9 2298.7 3815.04 2298.7 3803.32C2280.29 3777.23 2254.37 3755.23 2243.71 3747.5M2399.73 3897.95C2344.74 3885.59 2236.55 3865.73 2243.71 3885.17" stroke="black" stroke-width="16" stroke-linecap="round"/>
<path d="M2029.51 4041.82C2029.51 4025.83 2063.45 3932.48 2074.91 3932.48M2009.05 3987.47L2033.99 3956.14M1986.67 3972.12L2016.72 3944.63M1966.85 4377.51C1983.05 4405.01 2019.28 4459.99 2034.63 4459.99M1939.99 4358.97C1946.39 4387.31 1960.71 4443.24 1966.85 4440.17M1911.22 4377.51C1909.94 4385.18 1911.86 4404.49 1929.76 4420.35M2615.21 4302.7C2618.62 4325.08 2614.95 4376.87 2573.01 4405.01M2646.54 4302.7C2648.46 4315.28 2649.35 4344.13 2637.59 4358.97M2666.36 4302.7C2658.26 4311.65 2666.36 4324.44 2654.21 4344.26" stroke="black" stroke-width="16" stroke-linecap="round" stroke-linejoin="round"/>
<g filter="url(#filter2_d)">
<path d="M2917.59 4462.13L3030.15 4341.38L3129.08 4394.54L3336.67 4667.75L3216.81 4783.15L3168.52 4767.75C3164.71 4763.41 3160.6 4758.43 3156.33 4752.91L2917.59 4462.13Z" fill="#9FE47F"/>
<path d="M3030.15 4341.38L2917.59 4462.13M3030.15 4341.38C3067.25 4376.22 3132.88 4465.26 3098.61 4542.61M3030.15 4341.38L3286.24 4653.29M3030.15 4341.38L3129.08 4394.54L3336.67 4667.75M2917.59 4462.13L3168.52 4767.75M2917.59 4462.13C2960.86 4468.16 3057.64 4492.7 3098.61 4542.61M3168.52 4767.75C3130.94 4724.94 3064.35 4619.96 3098.61 4542.61M3168.52 4767.75C3225.55 4709.33 3328.94 4604.63 3286.24 4653.29M3168.52 4767.75L3216.81 4783.15L3336.67 4667.75M3098.61 4542.61C3143.36 4599.78 3243.54 4701.94 3286.24 4653.29M3286.24 4653.29L3336.67 4667.75" stroke="black" stroke-width="16"/>
</g>
<g filter="url(#filter3_d)">
<path d="M2330.15 4835.15L2343.19 4670.59L2453.73 4650.68L2786.2 4735.52L2764.12 4900.44L2716.72 4918.41C2711.04 4917.38 2704.72 4916.04 2697.94 4914.37L2330.15 4835.15Z" fill="#E4DA7F"/>
<path d="M2343.19 4670.59L2330.15 4835.15M2343.19 4670.59C2393.92 4674.8 2500.68 4703.7 2521.96 4785.59M2343.19 4670.59L2737.72 4755.57M2343.19 4670.59L2453.73 4650.68L2786.2 4735.52M2330.15 4835.15L2716.72 4918.41M2330.15 4835.15C2367.78 4812.96 2458.83 4771.99 2521.96 4785.59M2716.72 4918.41C2660.67 4908.26 2543.23 4867.47 2521.96 4785.59M2716.72 4918.41C2725.04 4837.19 2740.89 4690.91 2737.72 4755.57M2716.72 4918.41L2764.12 4900.44L2786.2 4735.52M2521.96 4785.59C2592.56 4802.52 2734.55 4820.22 2737.72 4755.57M2737.72 4755.57L2786.2 4735.52" stroke="black" stroke-width="16"/>
</g>
<path d="M257.079 1871.67C243.012 1871.67 172.677 1860.16 153.495 1854.41L146.597 1509.53L144.543 1506.57L146.484 1503.87L137.51 1055.15C137.51 1014.23 160.912 963.793 182.908 963.077C182.908 963.077 257.079 851.18 325.495 851.18L727.681 840.95L1375.5 840.95C1381.19 859.264 1459.77 878.157 1429.3 896.716C1431.44 899.277 1433.51 902.035 1435.5 905C1435.5 905 1419.52 906.329 1393.29 908.507C1366.66 914.256 1325.57 919.953 1264.45 925.571C1260.4 927.817 1257.45 929.279 1256.28 929.5H1487.3H1579.37C1620.93 928.221 1727.71 840.95 1727.71 856.296C1727.71 875.478 1728.99 1506.57 1737.94 1506.57L1811.47 2416.34C1806.37 2411.15 1798.84 2406.73 1787.82 2406.21C1769.23 2405.35 1700.64 2394.08 1653.71 2385.97C1645.11 2384.49 1637.23 2383.11 1630.52 2381.92L1579.37 2373.61L1532.05 2360.18L1487.3 2343.55L1435.5 2327.57L1388.83 2287.29L1354.94 2260.43L1340.23 2250.08L1303.15 2223.98L1285.24 2216.24L1255.83 2203.52L1181.02 2174.11L1096.62 2138.94L1036.51 2103.78L1021.88 2093.55L977.049 2062.21L914.388 2020.65L888.811 2006.59L863.235 1992.52C851.513 1989.38 830.359 1983.51 811.681 1977.81C801.153 1974.6 791.411 1971.44 784.588 1968.86C767.632 1962.45 718.488 1969.17 686.12 1973.96C673.326 1975.86 663.154 1977.45 658.625 1977.81C642.64 1979.09 611.949 1943.29 591.488 1927.3C571.027 1911.31 549.287 1929.86 530.105 1927.3C510.923 1924.74 482.149 1911.31 469.361 1906.84C456.573 1902.36 382.402 1854.41 360.023 1844.18C347.167 1838.3 319.753 1848.25 296.082 1857.78C278.546 1864.84 263.065 1871.67 257.079 1871.67Z" fill="#725535"/>
<path d="M257.079 1871.67C243.012 1871.67 172.677 1860.16 153.495 1854.41L146.597 1509.53L144.543 1506.57L146.484 1503.87L137.51 1055.15C137.51 1014.23 160.912 963.793 182.908 963.077C182.908 963.077 257.079 851.18 325.495 851.18L727.681 840.95L1375.5 840.95C1381.19 859.264 1459.77 878.157 1429.3 896.716C1431.44 899.277 1433.51 902.035 1435.5 905C1435.5 905 1419.52 906.329 1393.29 908.507C1366.66 914.256 1325.57 919.953 1264.45 925.571C1260.4 927.817 1257.45 929.279 1256.28 929.5H1487.3H1579.37C1620.93 928.221 1727.71 840.95 1727.71 856.296C1727.71 875.478 1728.99 1506.57 1737.94 1506.57L1811.47 2416.34C1806.37 2411.15 1798.84 2406.73 1787.82 2406.21C1769.23 2405.35 1700.64 2394.08 1653.71 2385.97C1645.11 2384.49 1637.23 2383.11 1630.52 2381.92L1579.37 2373.61L1532.05 2360.18L1487.3 2343.55L1435.5 2327.57L1388.83 2287.29L1354.94 2260.43L1340.23 2250.08L1303.15 2223.98L1285.24 2216.24L1255.83 2203.52L1181.02 2174.11L1096.62 2138.94L1036.51 2103.78L1021.88 2093.55L977.049 2062.21L914.388 2020.65L888.811 2006.59L863.235 1992.52C851.513 1989.38 830.359 1983.51 811.681 1977.81C801.153 1974.6 791.411 1971.44 784.588 1968.86C767.632 1962.45 718.488 1969.17 686.12 1973.96C673.326 1975.86 663.154 1977.45 658.625 1977.81C642.64 1979.09 611.949 1943.29 591.488 1927.3C571.027 1911.31 549.287 1929.86 530.105 1927.3C510.923 1924.74 482.149 1911.31 469.361 1906.84C456.573 1902.36 382.402 1854.41 360.023 1844.18C347.167 1838.3 319.753 1848.25 296.082 1857.78C278.546 1864.84 263.065 1871.67 257.079 1871.67Z" fill="url(#paint0_diamond)" fill-opacity="0.77"/>
<path d="M257.079 1871.67C243.012 1871.67 172.677 1860.16 153.495 1854.41L146.597 1509.53L144.543 1506.57L146.484 1503.87L137.51 1055.15C137.51 1014.23 160.912 963.793 182.908 963.077C182.908 963.077 257.079 851.18 325.495 851.18L727.681 840.95L1375.5 840.95C1381.19 859.264 1459.77 878.157 1429.3 896.716C1431.44 899.277 1433.51 902.035 1435.5 905C1435.5 905 1419.52 906.329 1393.29 908.507C1366.66 914.256 1325.57 919.953 1264.45 925.571C1260.4 927.817 1257.45 929.279 1256.28 929.5H1487.3H1579.37C1620.93 928.221 1727.71 840.95 1727.71 856.296C1727.71 875.478 1728.99 1506.57 1737.94 1506.57L1811.47 2416.34C1806.37 2411.15 1798.84 2406.73 1787.82 2406.21C1769.23 2405.35 1700.64 2394.08 1653.71 2385.97C1645.11 2384.49 1637.23 2383.11 1630.52 2381.92L1579.37 2373.61L1532.05 2360.18L1487.3 2343.55L1435.5 2327.57L1388.83 2287.29L1354.94 2260.43L1340.23 2250.08L1303.15 2223.98L1285.24 2216.24L1255.83 2203.52L1181.02 2174.11L1096.62 2138.94L1036.51 2103.78L1021.88 2093.55L977.049 2062.21L914.388 2020.65L888.811 2006.59L863.235 1992.52C851.513 1989.38 830.359 1983.51 811.681 1977.81C801.153 1974.6 791.411 1971.44 784.588 1968.86C767.632 1962.45 718.488 1969.17 686.12 1973.96C673.326 1975.86 663.154 1977.45 658.625 1977.81C642.64 1979.09 611.949 1943.29 591.488 1927.3C571.027 1911.31 549.287 1929.86 530.105 1927.3C510.923 1924.74 482.149 1911.31 469.361 1906.84C456.573 1902.36 382.402 1854.41 360.023 1844.18C347.167 1838.3 319.753 1848.25 296.082 1857.78C278.546 1864.84 263.065 1871.67 257.079 1871.67Z" fill="url(#paint1_diamond)" fill-opacity="0.77"/>
<path d="M257.079 1871.67C243.012 1871.67 172.677 1860.16 153.495 1854.41L146.597 1509.53L144.543 1506.57L146.484 1503.87L137.51 1055.15C137.51 1014.23 160.912 963.793 182.908 963.077C182.908 963.077 257.079 851.18 325.495 851.18L727.681 840.95L1375.5 840.95C1381.19 859.264 1459.77 878.157 1429.3 896.716C1431.44 899.277 1433.51 902.035 1435.5 905C1435.5 905 1419.52 906.329 1393.29 908.507C1366.66 914.256 1325.57 919.953 1264.45 925.571C1260.4 927.817 1257.45 929.279 1256.28 929.5H1487.3H1579.37C1620.93 928.221 1727.71 840.95 1727.71 856.296C1727.71 875.478 1728.99 1506.57 1737.94 1506.57L1811.47 2416.34C1806.37 2411.15 1798.84 2406.73 1787.82 2406.21C1769.23 2405.35 1700.64 2394.08 1653.71 2385.97C1645.11 2384.49 1637.23 2383.11 1630.52 2381.92L1579.37 2373.61L1532.05 2360.18L1487.3 2343.55L1435.5 2327.57L1388.83 2287.29L1354.94 2260.43L1340.23 2250.08L1303.15 2223.98L1285.24 2216.24L1255.83 2203.52L1181.02 2174.11L1096.62 2138.94L1036.51 2103.78L1021.88 2093.55L977.049 2062.21L914.388 2020.65L888.811 2006.59L863.235 1992.52C851.513 1989.38 830.359 1983.51 811.681 1977.81C801.153 1974.6 791.411 1971.44 784.588 1968.86C767.632 1962.45 718.488 1969.17 686.12 1973.96C673.326 1975.86 663.154 1977.45 658.625 1977.81C642.64 1979.09 611.949 1943.29 591.488 1927.3C571.027 1911.31 549.287 1929.86 530.105 1927.3C510.923 1924.74 482.149 1911.31 469.361 1906.84C456.573 1902.36 382.402 1854.41 360.023 1844.18C347.167 1838.3 319.753 1848.25 296.082 1857.78C278.546 1864.84 263.065 1871.67 257.079 1871.67Z" fill="url(#paint2_diamond)" fill-opacity="0.77"/>
<path d="M257.079 1871.67C243.012 1871.67 172.677 1860.16 153.495 1854.41L146.597 1509.53L144.543 1506.57L146.484 1503.87L137.51 1055.15C137.51 1014.23 160.912 963.793 182.908 963.077C182.908 963.077 257.079 851.18 325.495 851.18L727.681 840.95L1375.5 840.95C1381.19 859.264 1459.77 878.157 1429.3 896.716C1431.44 899.277 1433.51 902.035 1435.5 905C1435.5 905 1419.52 906.329 1393.29 908.507C1366.66 914.256 1325.57 919.953 1264.45 925.571C1260.4 927.817 1257.45 929.279 1256.28 929.5H1487.3H1579.37C1620.93 928.221 1727.71 840.95 1727.71 856.296C1727.71 875.478 1728.99 1506.57 1737.94 1506.57L1811.47 2416.34C1806.37 2411.15 1798.84 2406.73 1787.82 2406.21C1769.23 2405.35 1700.64 2394.08 1653.71 2385.97C1645.11 2384.49 1637.23 2383.11 1630.52 2381.92L1579.37 2373.61L1532.05 2360.18L1487.3 2343.55L1435.5 2327.57L1388.83 2287.29L1354.94 2260.43L1340.23 2250.08L1303.15 2223.98L1285.24 2216.24L1255.83 2203.52L1181.02 2174.11L1096.62 2138.94L1036.51 2103.78L1021.88 2093.55L977.049 2062.21L914.388 2020.65L888.811 2006.59L863.235 1992.52C851.513 1989.38 830.359 1983.51 811.681 1977.81C801.153 1974.6 791.411 1971.44 784.588 1968.86C767.632 1962.45 718.488 1969.17 686.12 1973.96C673.326 1975.86 663.154 1977.45 658.625 1977.81C642.64 1979.09 611.949 1943.29 591.488 1927.3C571.027 1911.31 549.287 1929.86 530.105 1927.3C510.923 1924.74 482.149 1911.31 469.361 1906.84C456.573 1902.36 382.402 1854.41 360.023 1844.18C347.167 1838.3 319.753 1848.25 296.082 1857.78C278.546 1864.84 263.065 1871.67 257.079 1871.67Z" fill="url(#paint3_diamond)" fill-opacity="0.77"/>
<path d="M257.079 1871.67C243.012 1871.67 172.677 1860.16 153.495 1854.41L146.597 1509.53L144.543 1506.57L146.484 1503.87L137.51 1055.15C137.51 1014.23 160.912 963.793 182.908 963.077C182.908 963.077 257.079 851.18 325.495 851.18L727.681 840.95L1375.5 840.95C1381.19 859.264 1459.77 878.157 1429.3 896.716C1431.44 899.277 1433.51 902.035 1435.5 905C1435.5 905 1419.52 906.329 1393.29 908.507C1366.66 914.256 1325.57 919.953 1264.45 925.571C1260.4 927.817 1257.45 929.279 1256.28 929.5H1487.3H1579.37C1620.93 928.221 1727.71 840.95 1727.71 856.296C1727.71 875.478 1728.99 1506.57 1737.94 1506.57L1811.47 2416.34C1806.37 2411.15 1798.84 2406.73 1787.82 2406.21C1769.23 2405.35 1700.64 2394.08 1653.71 2385.97C1645.11 2384.49 1637.23 2383.11 1630.52 2381.92L1579.37 2373.61L1532.05 2360.18L1487.3 2343.55L1435.5 2327.57L1388.83 2287.29L1354.94 2260.43L1340.23 2250.08L1303.15 2223.98L1285.24 2216.24L1255.83 2203.52L1181.02 2174.11L1096.62 2138.94L1036.51 2103.78L1021.88 2093.55L977.049 2062.21L914.388 2020.65L888.811 2006.59L863.235 1992.52C851.513 1989.38 830.359 1983.51 811.681 1977.81C801.153 1974.6 791.411 1971.44 784.588 1968.86C767.632 1962.45 718.488 1969.17 686.12 1973.96C673.326 1975.86 663.154 1977.45 658.625 1977.81C642.64 1979.09 611.949 1943.29 591.488 1927.3C571.027 1911.31 549.287 1929.86 530.105 1927.3C510.923 1924.74 482.149 1911.31 469.361 1906.84C456.573 1902.36 382.402 1854.41 360.023 1844.18C347.167 1838.3 319.753 1848.25 296.082 1857.78C278.546 1864.84 263.065 1871.67 257.079 1871.67Z" fill="url(#paint4_diamond)" fill-opacity="0.77"/>
<path d="M469.361 1906.84C456.573 1902.36 382.402 1854.41 360.023 1844.18C347.167 1838.3 319.753 1848.25 296.082 1857.78M469.361 1906.84C482.149 1911.31 510.923 1924.74 530.105 1927.3C549.287 1929.86 571.027 1911.31 591.488 1927.3C611.949 1943.29 642.64 1979.09 658.625 1977.81C663.154 1977.45 673.326 1975.86 686.12 1973.96M469.361 1906.84L680.209 1766.88M1181.02 2174.11L1096.62 2138.94L1036.51 2103.78L1021.88 2093.55M1181.02 2174.11L1255.83 2203.52L1285.24 2216.24M1181.02 2174.11V2010.26M1487.3 2343.55L1435.5 2327.57L1388.83 2287.29L1354.94 2260.43L1340.23 2250.08M1487.3 2343.55L1532.05 2360.18L1579.37 2373.61L1630.52 2381.92C1637.23 2383.11 1645.11 2384.49 1653.71 2385.97M1487.3 2343.55L1653.71 2239.97M1579.37 929.5C1620.93 928.221 1727.71 840.95 1727.71 856.296C1727.71 875.478 1728.99 1506.57 1737.94 1506.57L1811.47 2416.34C1806.37 2411.15 1798.84 2406.73 1787.82 2406.21C1769.23 2405.35 1700.64 2394.08 1653.71 2385.97M1579.37 929.5L1622.08 1731.64M1579.37 929.5L1603.03 1236M1579.37 929.5H1487.3M1603.03 1236L1496.89 1472.68M1603.03 1236L1181.02 1482.91M1603.03 1236L1487.3 929.5M1603.03 1236L1311 1225.87M1311 1225.87L1181.02 1482.91M1311 1225.87L1255.83 929.5M1255.83 945.838C1242.62 930.367 1297.34 932.464 1255.83 929.5M1255.83 929.5C1239.21 922.467 1372.91 812.062 1435.5 905C1435.5 905 944.561 945.821 938.685 945.838M1255.83 929.5C1227 927.442 1395.12 983.695 1388.83 977.143C1386.37 974.58 1258.07 936.662 1255.83 929.5ZM1255.83 929.5L1181.02 1482.91M1255.83 929.5C1258.86 930.781 1322.97 889.5 1322.97 889.5M1255.83 929.5C1246.62 900.121 1332.62 917.114 1322.97 889.5M1255.83 929.5L1036.51 1218.2M1255.83 929.5H1487.3M182.908 963.077C182.908 963.077 257.079 851.18 325.495 851.18L727.681 840.95L1375.5 840.95C1386.37 875.921 1663 913 938.685 945.838M182.908 963.077C160.912 963.793 137.51 1014.23 137.51 1055.15L153.495 1854.41C172.677 1860.16 243.012 1871.67 257.079 1871.67C263.065 1871.67 278.546 1864.84 296.082 1857.78M182.908 963.077L346.595 1225.87M182.908 963.077C182.908 963.077 355.109 957.33 549.926 952.467M182.908 963.077L668.903 1218.2M1496.89 1472.68L1622.08 1731.64M1496.89 1472.68L1181.02 1482.91M1622.08 1731.64L1542.28 1998.27M1622.08 1731.64L1653.71 2239.97M1622.08 1731.64L1181.02 2010.26M1622.08 1731.64L1322.97 1746.35M1622.08 1731.64L1181.02 1482.91M1542.28 1998.27L1653.71 2239.97M1542.28 1998.27L1181.02 2010.26M1653.71 2239.97L1340.23 2250.08M1653.71 2239.97L1181.02 2010.26M1653.71 2239.97V2385.97M1340.23 2250.08L1303.15 2223.98L1285.24 2216.24M144.543 1506.57H517.956M144.543 1506.57L680.209 1766.88M144.543 1506.57L338.283 1785.99M144.543 1506.57L679.081 1222.17M144.543 1506.57L346.595 1225.87M517.956 1506.57L852.365 946.518M517.956 1506.57L680.209 1766.88M811.681 1977.81C801.153 1974.6 791.411 1971.44 784.588 1968.86C767.632 1962.45 718.488 1969.17 686.12 1973.96M811.681 1977.81C830.359 1983.51 851.513 1989.38 863.235 1992.52L888.811 2006.59M811.681 1977.81L680.209 1766.88M686.12 1973.96L679.081 1222.17M676.529 949.535C737.496 948.245 797.571 947.174 852.365 946.518M676.529 949.535L679.081 1222.17M676.529 949.535C634.269 950.429 591.581 951.428 549.926 952.467M852.365 946.518C883.052 946.15 912.082 945.912 938.685 945.838M346.595 1225.87L676.529 1222.2M1036.51 1218.2L1181.02 1482.91M1036.51 1218.2L679.081 1222.17M1181.02 1482.91V2010.26M1181.02 1482.91L1322.97 1746.35M1181.02 1482.91L679.081 1222.17M1181.02 1482.91L805.049 1506.57M1181.02 1482.91L680.209 1766.88M1181.02 1482.91L1043.55 1756.58M1181.02 2010.26L1285.24 2216.24M1181.02 2010.26L1021.88 2093.55M1181.02 2010.26L888.811 2006.59M1181.02 2010.26L1322.97 1746.35M1181.02 2010.26L680.209 1766.88M1181.02 2010.26L1043.55 1756.58M1021.88 2093.55L977.049 2062.21L914.388 2020.65L888.811 2006.59M679.081 1222.17L805.049 1506.57M679.081 1222.17L676.529 1222.2M805.049 1506.57L680.209 1766.88M680.209 1766.88L1043.55 1756.58M680.209 1766.88L338.283 1785.99M338.283 1785.99L296.082 1857.78M676.529 1222.2L549.926 952.467M676.529 1222.2L668.903 1218.2M668.903 1218.2L1322.97 889.5" stroke="black" stroke-width="16"/>
<path d="M1067.76 851.921C1216.17 874.369 1672.52 1307.62 1732.91 1392.36C1780.79 1345.11 1952.13 1271.68 1945.05 1201.79C1941.81 1169.74 2025.54 1189.34 2065.54 1203.25C2122.16 1242.71 2269.84 1281.86 2407.61 1122.81C2545.38 963.756 2476.49 768.328 2424.83 690.496C2459.17 463.287 2288.9 360.742 2192.06 337.226C2145.24 132.733 1935.74 107.704 1852.74 108.544C1833.21 76.0822 1651.13 -20.2827 1520.07 29.4875C1389 79.2577 1316.04 223.89 1287.09 311.655C1258.14 399.42 1279.31 501.89 1272.67 556.19C1267.37 599.629 1202.11 639.59 1191.31 654.397C1172.89 654.173 1023.45 845.219 1067.76 851.921Z" fill="white"/>
<path d="M1852.74 108.544C1833.21 76.0822 1651.13 -20.2827 1520.07 29.4875C1389 79.2577 1316.04 223.89 1287.09 311.655C1258.14 399.419 1279.31 501.89 1272.67 556.19C1267.37 599.629 1202.11 639.59 1191.31 654.397C1172.89 654.173 1023.45 845.219 1067.76 851.921C1216.17 874.369 1672.52 1307.62 1732.91 1392.36C1780.79 1345.11 1952.13 1271.68 1945.05 1201.79C1941.81 1169.74 2025.54 1189.34 2065.54 1203.25C2122.16 1242.71 2269.84 1281.86 2407.61 1122.81C2545.38 963.756 2476.49 768.328 2424.83 690.496M1852.74 108.544C1860.67 121.731 1753.98 121.949 1689.84 236.98M1852.74 108.544C1935.74 107.704 2145.24 132.733 2192.06 337.226M2192.06 337.226C2197.38 360.452 2117.27 304.094 2028.26 335.24M2192.06 337.226C2288.9 360.742 2459.17 463.287 2424.83 690.496M2412.15 748.75C2417.84 728.482 2422.02 709.072 2424.83 690.496" stroke="black" stroke-width="16" stroke-linecap="round" stroke-linejoin="round"/>
<path d="M1788.15 1352.1L1815.41 1321.71C1770.08 1241.11 1708.47 1164.69 1527.32 1033.09C1381.25 926.979 1204.15 785.977 1097.27 771.086C1063.71 801.394 1062.31 821.014 1079.73 821.225C1214.14 822.854 1487.27 992.391 1788.15 1352.1Z" stroke="black" stroke-width="16"/>
<path d="M1172.65 673.31C1142.01 695.429 1136.73 719.948 1151.24 714.842C1440.09 793.794 1697.59 1035.16 1905.41 1267.78C1916.19 1279.85 1928.35 1264.54 1928.72 1233.83C1926.46 1215.17 1777.67 1042.67 1600.59 903.57C1458.93 792.287 1263.59 689.015 1172.65 673.31Z" stroke="black" stroke-width="16"/>
<path d="M1589.85 221.078C1551.25 273.163 1474.66 390.332 1477.11 442.332M1574.52 317.214C1557.94 346.356 1523.49 417.157 1518.42 467.225C1512.07 529.809 1486.14 654.218 1465.41 674.522M1451.73 562.239C1454.81 582.792 1456.55 628.622 1438.85 647.517C1421.15 666.413 1409.53 703.179 1405.93 719.2M1340.21 421.194C1333.83 455.392 1322.38 528.973 1327.57 549.714C1334.07 575.64 1381.76 657.546 1368.8 684.366M1362.17 492.921C1368.36 513.163 1354.89 564.935 1362.4 613.169M1654.17 747.16L1635.08 848.298M1745.7 624.809C1723.88 659.402 1679.98 734.637 1678.92 758.834C1677.86 783.031 1673.16 842.736 1670.95 869.563M1934.23 405.862C1920.42 428.376 1885.37 482.711 1855.57 519.942C1818.32 566.481 1736.24 754.28 1736.82 801.751M2024.2 517.406C2004.7 552.736 1959.26 625.362 1933.57 633.229C1901.44 643.063 1835.97 671.29 1818.85 715.995C1801.74 760.7 1735.64 843.501 1743.59 869.463M2116.35 818.393C2082.83 825.766 2009.22 847.63 1982.89 876.095C1949.99 911.676 1820.54 987.957 1826.02 992.5M2226.77 826.94C2183.95 851.601 2086.07 902.165 2037.15 907.13C1976.01 913.337 1896.42 964.652 1882.69 984.257M2349.46 869.271C2323.5 895.027 2267.28 946.988 2250.12 948.777C2228.66 951.013 2160.35 976.259 2132.19 984.881M2233.62 986.073C2203.92 998.054 2137.43 1022.45 2109.09 1024.2C2073.66 1026.38 1970.8 1029.96 1966.24 1049.64M2155.36 1060.57C2122.19 1067.51 2054.54 1083.73 2049.31 1093.03C2042.76 1104.66 1986.73 1130.48 1986.57 1145.93M2223.75 1073.32C2193.13 1082.69 2169.42 1092.36 2142.23 1085.28" stroke="black" stroke-width="4" stroke-linecap="round" stroke-linejoin="round"/>
<defs>
<filter id="filter0_f" x="130" y="3899" width="3250.61" height="1146.82" filterUnits="userSpaceOnUse" color-interpolation-filters="sRGB">
<feFlood flood-opacity="0" result="BackgroundImageFix"/>
<feBlend mode="normal" in="SourceGraphic" in2="BackgroundImageFix" result="shape"/>
<feGaussianBlur stdDeviation="32" result="effect1_foregroundBlur"/>
</filter>
<filter id="filter1_f" x="2457.82" y="4411.15" width="1094.66" height="649.049" filterUnits="userSpaceOnUse" color-interpolation-filters="sRGB">
<feFlood flood-opacity="0" result="BackgroundImageFix"/>
<feBlend mode="normal" in="SourceGraphic" in2="BackgroundImageFix" result="shape"/>
<feGaussianBlur stdDeviation="32" result="effect1_foregroundBlur"/>
</filter>
<filter id="filter2_d" x="2887.85" y="4302.39" width="482.683" height="517.875" filterUnits="userSpaceOnUse" color-interpolation-filters="sRGB">
<feFlood flood-opacity="0" result="BackgroundImageFix"/>
<feColorMatrix in="SourceAlpha" type="matrix" values="0 0 0 0 0 0 0 0 0 0 0 0 0 0 0 0 0 0 127 0"/>
<feOffset dy="4"/>
<feGaussianBlur stdDeviation="2"/>
<feColorMatrix type="matrix" values="0 0 0 0 0 0 0 0 0 0 0 0 0 0 0 0 0 0 0.25 0"/>
<feBlend mode="normal" in2="BackgroundImageFix" result="effect1_dropShadow"/>
<feBlend mode="normal" in="SourceGraphic" in2="effect1_dropShadow" result="shape"/>
</filter>
<filter id="filter3_d" x="2287.47" y="4618.09" width="549.153" height="354.003" filterUnits="userSpaceOnUse" color-interpolation-filters="sRGB">
<feFlood flood-opacity="0" result="BackgroundImageFix"/>
<feColorMatrix in="SourceAlpha" type="matrix" values="0 0 0 0 0 0 0 0 0 0 0 0 0 0 0 0 0 0 127 0"/>
<feOffset dx="7" dy="17"/>
<feGaussianBlur stdDeviation="9"/>
<feColorMatrix type="matrix" values="0 0 0 0 0 0 0 0 0 0 0 0 0 0 0 0 0 0 0.25 0"/>
<feBlend mode="normal" in2="BackgroundImageFix" result="effect1_dropShadow"/>
<feBlend mode="normal" in="SourceGraphic" in2="effect1_dropShadow" result="shape"/>
</filter>
<radialGradient id="paint0_diamond" cx="0" cy="0" r="1" gradientUnits="userSpaceOnUse" gradientTransform="translate(918.224 1628.7) rotate(150.464) scale(325.564 151.345)">
<stop stop-color="#C3AD91"/>
<stop offset="1" stop-color="white" stop-opacity="0"/>
</radialGradient>
<radialGradient id="paint1_diamond" cx="0" cy="0" r="1" gradientUnits="userSpaceOnUse" gradientTransform="translate(1415.04 1858.24) rotate(146.6) scale(245.086 196.605)">
<stop stop-color="#C9B9A7"/>
<stop offset="1" stop-color="white" stop-opacity="0"/>
</radialGradient>
<radialGradient id="paint2_diamond" cx="0" cy="0" r="1" gradientUnits="userSpaceOnUse" gradientTransform="translate(438.67 1348.64) rotate(152.868) scale(288.825 145.644)">
<stop stop-color="#B4A08A"/>
<stop offset="1" stop-color="white" stop-opacity="0"/>
</radialGradient>
<radialGradient id="paint3_diamond" cx="0" cy="0" r="1" gradientUnits="userSpaceOnUse" gradientTransform="translate(934.209 1080.73) rotate(151.464) scale(274.389 185.002)">
<stop stop-color="#AD9982"/>
<stop offset="1" stop-color="white" stop-opacity="0"/>
</radialGradient>
<radialGradient id="paint4_diamond" cx="0" cy="0" r="1" gradientUnits="userSpaceOnUse" gradientTransform="translate(1420.8 1348) rotate(150.499) scale(279.168 158.092)">
<stop stop-color="#A9957E"/>
<stop offset="1" stop-color="white" stop-opacity="0"/>
</radialGradient>
</defs>
</svg>
