<?xml version="1.0" encoding="utf-8"?>
<!-- Generator: Adobe Illustrator 24.1.0, SVG Export Plug-In . SVG Version: 6.00 Build 0)  -->
<svg version="1.1" id="Layer_1" xmlns="http://www.w3.org/2000/svg" xmlns:xlink="http://www.w3.org/1999/xlink" x="0px" y="0px"
	 viewBox="0 0 612 792" style="enable-background:new 0 0 612 792;" xml:space="preserve">
<style type="text/css">
	.st0{display:none;fill:#D7C5B4;}
	.st1{fill:#809CA4;stroke:#000000;stroke-miterlimit:10;}
	.st2{fill:#4D2E18;stroke:#000000;stroke-miterlimit:10;}
	.st3{fill:#4D2E18;stroke:#000000;stroke-width:2;stroke-miterlimit:10;}
	.st4{fill:#0B0C0D;}
	.st5{fill:#C85550;stroke:#000000;stroke-miterlimit:10;}
	.st6{fill:none;stroke:#000000;stroke-miterlimit:10;}
	.st7{fill:none;stroke:#020202;stroke-miterlimit:10;}
	.st8{fill:#120D0C;}
	.st9{fill:#CFBCAD;}
	.st10{fill:#D2847A;stroke:#000000;stroke-miterlimit:10;}
	.st11{fill:#DBC3AD;}
	.st12{fill:none;stroke:#FFFFFF;stroke-width:0.25;stroke-miterlimit:10;}
	.st13{fill:#809CA4;}
	.st14{fill:#DBC3AD;stroke:#000000;stroke-miterlimit:10;}
	.st15{fill:#A98869;stroke:#000000;stroke-miterlimit:10;}
	.st16{fill:#D4C4B5;stroke:#020202;stroke-width:2;stroke-miterlimit:10;}
	.st17{fill:none;stroke:#020202;stroke-width:2;stroke-miterlimit:10;}
	.st18{fill:#1E1614;}
	.st19{fill:#020202;}
</style>
<g>
	<rect x="9" class="st0" width="594" height="792"/>
	<path class="st1" d="M427.7,466.6l1.9,194c0,0,3.5,29.6-24.9,38.9l2.8-26l-2.3-223.2l4.4-0.8l3.4,2.9l3.3,0.9l3-0.8l4.2,0.2
		l3.9,2.6l1.5,4.1l-0.5,4.2L427.7,466.6z"/>
	<path class="st2" d="M222.3,175.8c0,0,27.4-17.6,38.1-19.5l147.7,2.4c2.1,0,4.1,0,6.2-0.1c4.6-0.2,15.4,0.4,15.2,11l-1.8,127.3
		L426.5,440c0,0-14.4-11.3-19-12.6l-3-0.5V231.6v-38.4l-5-8.5l-6.5-3.4l-6.5-2L222.3,175.8z"/>
	<path class="st3" d="M222.3,175.8l168.4,3.4c7.7,0,13.9,6.2,13.9,13.9v257.3c-0.4,0-0.7,0-1.2,0.1c-5,0.2-12.3-1.3-17.8-5.2
		c-5.5-3.9-27.5-4.5-27.5-4.5c-20.2-1.6-16.8-7.1-28.3-20.9c-11.5-13.7-22.9-11-30.7-10.3c-7.8,0.6-11.3-5.6-20.5-13.4
		s-21.8-8.4-21.8-8.4c-3.4,0-14.8-0.5-18.4-2.6c-3.6-2.1-16.1-2-24.2-1.2c-8.1,0.7-20.4-6.4-23.5-13.3c-3.2-6.9-9.3-3.9-13.1-4
		s-3.7-4.8-12-3.7c-3.3,0.4-6.7,0.1-9.6-0.5c-0.3-0.1-0.7-0.1-1-0.2l-0.2-34l-0.6-93.2C154.2,235.1,198,186.9,222.3,175.8z"/>
	<path class="st1" d="M407.6,690.7c0.3,7.3-5.6,13.5-13.1,13.8l-219.6,2.1c-7.5,0.3-13.8-5.5-14-12.8L156,362.5l-0.5-34.4
		c4.3-0.9,8,0.7,8,0.7s10.5,2.1,21-1s17,1.3,20,3.9c3.1,2.6,9.7,6.6,12.8,7.3c3.7,0.8,11.8,3.7,14.7,5.2s12.1,5.5,23.1,2.6
		s25.2,4.9,33.6,15s21.8,15.2,21.8,15.2c14.9,4.4,19.6,5.5,26.7,13.6s17.8,14.2,22.3,15.5s8.4-0.6,18.9,5.7
		c10.5,6.3,11.6,5.8,18.3,6c5,0.1,5.2,2.6,8.3,4.9l0.2,27.8L407.6,690.7z"/>
	<circle class="st4" cx="196.7" cy="430.6" r="3.8"/>
	<circle class="st4" cx="249.9" cy="434.4" r="3.8"/>
	<g>
		<path class="st4" d="M190.3,459.8c0,0,0.6,1,1.9,2.7c1.3,1.7,3.3,4,6.1,6.3c1.4,1.2,3,2.3,4.7,3.4c1.8,1,3.7,1.9,5.8,2.6
			c4.2,1.3,9.1,1.6,13.7,0.5c2.4-0.5,4.7-1,6.9-1.8c1.1-0.4,2.2-0.7,3.3-1.2c0.5-0.2,1.1-0.4,1.6-0.7c0.5-0.2,1-0.5,1.5-0.7
			c0.5-0.3,1-0.5,1.5-0.8s1-0.5,1.4-0.8c1-0.5,1.8-1.1,2.7-1.7s1.6-1.2,2.4-1.8c0.7-0.6,1.5-1.2,2.2-1.8c0.7-0.6,1.3-1.2,1.9-1.8
			c0.6-0.6,1.2-1.1,1.7-1.7c1-1.1,1.9-2.1,2.5-2.9c1.4-1.7,2.1-2.6,2.1-2.6s-0.2,0.3-0.5,0.7c-0.3,0.5-0.7,1.2-1.4,2.1
			c-0.6,0.9-1.4,2-2.3,3.1c-0.9,1.2-2,2.5-3.3,3.8c-0.6,0.7-1.4,1.3-2.1,2c-0.8,0.6-1.6,1.3-2.4,2c-1.7,1.3-3.6,2.5-5.7,3.6
			c-0.5,0.3-1,0.6-1.6,0.8c-0.5,0.2-1.1,0.5-1.6,0.7c-1.1,0.5-2.2,0.9-3.4,1.3c-2.3,0.8-4.8,1.5-7.2,1.9c-2.5,0.5-5,0.7-7.5,0.6
			s-4.9-0.6-7.2-1.4c-4.5-1.6-8.1-4.2-10.8-6.8c-2.7-2.6-4.5-5.2-5.6-7C190.8,460.9,190.3,459.8,190.3,459.8z"/>
	</g>
	<path class="st5" d="M233.6,473.1c0,0,1.8,13.9,11.8,14.3s13.9-8.9,13.6-12.1s-2.2-10.4-11-12.1C248,463.2,243.4,468.7,233.6,473.1
		z"/>
	<path class="st4" d="M239.9,469.8c0,0,5.3,0.7,5.9,3.6c0.6,2.8,1.5,6.2,2.8,5.5c1.3-0.8,0.9-4.4,0-6.4c-0.9-1.9-4.2-4.2-6-4.5
		C242.6,467.9,241.7,468.7,239.9,469.8z"/>
	<path class="st6" d="M400.9,183.7c0,0,19.2-19.8,25.6-21.9"/>
	<path class="st6" d="M414.9,516.7c0,0,34.6,4.4,59-29.3c25.8-35.6,38.9-86.4,38.9-86.4"/>
	<path class="st6" d="M567.7,437.7c-7.8,4.8-23.3-8.7-28.4-12.6c-5.2-3.9-34.2-31.3-34.2-31.3L489.9,382c-2.6-11-16.4-14.4-22.8-17
		c-6.5-2.6-7.5-13.8-11.2-16.9s-15.1-32.9-15.1-32.9s-10.6-25.2-11.1-37.3c-0.1-2.7,1.4-5.2,3.7-7.5c8.3-7.9,27.4-13,27.4-13
		c12.9-1.9,14.4,19.6,16.4,39.2c0.3,2.8,0.7,5.6,1.2,8.3c3,17,9.4,33.2,9.4,33.2s2.8,1.7,4.5,8.6s7.5,11.6,7.5,11.6
		c2.1,2.4,3.3,8.8,3.3,8.8c27.5,25.2,52.7,44.3,58.5,49C567.4,420.9,575.5,432.8,567.7,437.7z"/>
	<line class="st7" x1="460.3" y1="356.5" x2="487.7" y2="338.2"/>
	<path class="st7" d="M485.8,374.7c0,0,11.7-13.5,13.9-16.3"/>
	<line class="st7" x1="489.8" y1="381.9" x2="503.1" y2="367.2"/>
	<path d="M512.8,376c0,0-8,6.2-3.6,15.8c4,8.8,20.4,4.2,21.7,0C530.9,391.8,515.5,378.4,512.8,376z"/>
	<circle class="st8" cx="502.8" cy="381.4" r="4"/>
	<circle class="st9" cx="502.9" cy="381.2" r="1.6"/>
	<path class="st2" d="M478.3,304.9c-1.7-2.4-2.8-7.5-7.4-11c-6.4-4.9-4.5-8.1-7.3-16.5s-5.5-1.5-7.8,5s-7.4-3.6-8.1-7.6
		c-0.6-4-5-5.8-6.3-1.6c-1.3,4.2-4,3.4-3.9,1.1c0.2-2.2-4.3-4-4.3-4l0,0c8.3-7.9,27.4-13,27.4-13c12.9-1.9,14.4,19.6,16.4,39.2
		C477.4,299.4,477.8,302.2,478.3,304.9z"/>
	<path class="st4" d="M327.5,705.2c0,0-1.1,52.7-1.8,61.4c-0.6,8.7-14.7,8.2-22.3,7.6c-7.5-0.6-12.8-24.7,1.5-27.6
		c14.2-2.9,19.2,2.6,19.2,2.6l0.8-43.9"/>
	<path class="st6" d="M157.5,466.1c0,0-18.8,1.3-38.5,20s-29.1,40.7-35.5,62"/>
	<path class="st10" d="M94.7,617.1c0,0,6.1,9.7,16.7,13.4s19.8,2.6,19.8,2.6s4.1-0.3,4-3.9c-0.1-3.6,0.2-5.1-5.1-13.9
		c-5.3-8.8-14.6-23.4-15.7-25.4s-6.9-13.4-15.5-9.5s-16.4,12-14.5,17.3C86.2,603.1,92,613.5,94.7,617.1z"/>
	<path class="st5" d="M97,591.9c0,0-4.2,1.8-2.2,7.6s10,13.7,13.5,13.4s8-1.3,6.9-6s-5.1-11.6-6.1-13.9
		C108,590.7,106.5,586.2,97,591.9z"/>
	<path class="st6" d="M100.1,597.4c0,0,3.1,5,5.8,3.6c2.7-1.4,2.3-3.8,1.4-5.1s-19.8-38.2-19.8-38.2s-13-27.6-15.1-34.5
		c-2-6.9-6-11.1-8.7-18.2c-2.7-7.1-11.4-15.3-18.5-6.8s10.8,24,17.4,35.2s6.7,11.2,6.7,11.2L100.1,597.4z"/>
	<path class="st6" d="M50.3,508.5c0,0-2.9-6.2,0.8-7.5c3.7-1.2,7.9,4.6,8.1,8c0.2,3.4-0.5,9-4.5,4.9C50.8,510,50.3,508.5,50.3,508.5
		z"/>
	<line class="st6" x1="59.6" y1="517.4" x2="62.7" y2="522.5"/>
	<line class="st6" x1="59.6" y1="522.5" x2="67.5" y2="535.1"/>
	<path class="st6" d="M66,524.7c0,0,6.9,15.5,8.1,18.3c1.1,2.7,10.3,17.9,12.4,22.6c2.1,4.7,12.9,24.2,15,27"/>
	<path class="st4" d="M81,564.6c0,0,5.8-9.8,14.2-3.5s5.4,16.3-3.9,21.2L81,564.6z"/>
	<path class="st11" d="M401.1,398.2c0,0-20.6,12.3-22.5,13.6c-9.8-5.7-13.6-3.9-18-5.1c-2.4-0.7-6.6-2.8-11.1-5.8l-1.4-2.6h53V398.2
		z"/>
	<path class="st12" d="M205.4,597c0,0,38.4,13.1,55.7,14.8c0,0-20.4-12-22.9-22.6c0,0-1-8.8,9.5-14.9c0,0,4.7-3.1,21.4,0.5
		s30.9,1.6,29.2-5.2c-1.6-6.8-24.4-29.9-30.4-35c0,0-8.4-2-11.1-6.5c-2.7-4.5-4.2-10.8-0.1-13.7c4-2.9,5.1-4.3,5.1-4.3
		s-12.1-9.1-14.3-9.8l0.1-5.9c0,0-0.4-2.7,3.8-1.1s28.1,4.5,30.7,4.6s21.6,0.5,26.2-0.6s5.9-1.9,3.3-6.1s-8.6-9.2-12-12
		c-3.6-3-10-7.7-10-9.7c0,0-5.8-1.8-10.6-8.2c-4.8-6.4-2.5-14,9.5-15.2c0,0,2.1,0.7-0.9,1.3s-13.5,5.8-6.8,9.1
		c6.7,3.3,15.2,8.5,37.5,2c0,0,3.6-1.2,0.8-6s-6.8-10-9.6-12.3c0,0-20.6-3.6-32.2-11.9s-18.9-19.5-20.4-22s-3.1-13.5,4.8-18l2.5,0.6
		c0,0-4.3,0.7-6.2,7.6c-0.8,2.8,0.1,5.8,1.4,8.5c1.9,3.9,4.9,7.2,8.5,9.8c3.7,2.6,9.6,6.6,14.3,9c0,0,3.6-4.6,2.9-13.6
		s-0.4-8.7-0.4-8.7l2.7,2.6c0,0,0.6,11.1-0.7,14.5c-1.3,3.4-2.6,6-2.6,6s8.9,3.6,17.5,4.6s18.3,2.4,20.4,3.7c0,0-12.2-8.5-11.4-24.2
		l2.5,0.3c0,0-1.3,8.1,3.8,15.2c5.1,7.1,8.6,9.6,8.6,9.6s9.9,1,10.8,3.3s1.6,7.1,1,8.5s-1.1,2-4.5,0.6s-15.2-4.5-19.1-4.6
		c0,0,6.6,7.3,8.2,12.6c0.4,1.4,0.6,2.7,0.7,3.9c0.3,4.1-1.4,8.1-4.6,10.6c-4.1,3.1-11.6,6-24.9,2.2c-0.1,0-0.2-0.1-0.3-0.1
		c0,0,9.4,7.1,11.5,9.3c2.2,2.2,11.4,8.7,10.8,16.1s-8.5,10.3-13.3,10.8c-4.8,0.4-34.9,0.4-47.1-4.2c0,0,14.6,10.7,16.2,11.6
		c1.6,0.9,12.2,4.9,12,12c-0.1,7.1-4.2,7.9-12.2,8.3c0,0,12.9,12.9,16,16.2s15.6,13.9,14,22.1c-1.6,8.2-4.7,11.8-11.6,12.6
		s-24.7-1.8-30.5-3c-5.9-1.2-16.1-1.6-17.8,4.9c-1.6,6.1,14.7,19.2,22.7,22.8c1.5,0.7,2.9,1.7,3.8,3.1c0.9,1.3,1.6,3,1.3,5
		c-0.6,4.5-0.7,5.8-6.5,4.7c-5.7-1.1-15.4-3.9-17.8-4.3c0,0,10.8,11.2,12.2,16.3c1.3,5.1,2.5,11.4,0.1,16.9
		c-2.4,5.6-10.1,9.9-26.2,8.5s-24-6.2-24-6.2s-4.5,9.8-11.2,16.4c-6.7,6.7-15.3,14.1-17,15.5s-8.6,5.6-9.8,7.6s-4.6,6.6-4.7,7.4
		l-1.4-2.1c0,0,3-5.2,4.6-7.1"/>
	<path class="st4" d="M205.4,597c0,0,38.4,13.1,55.7,14.8c0,0-20.4-12-22.9-22.6c0,0-1-8.8,9.5-14.9c0,0,4.7-3.1,21.4,0.5
		s30.9,1.6,29.2-5.2c-1.6-6.8-24.4-29.9-30.4-35c0,0-8.4-2-11.1-6.5c-2.7-4.5-4.2-10.8-0.1-13.7c4-2.9,5.1-4.3,5.1-4.3
		s-12.1-9.1-14.3-9.8l0.1-5.9c0,0-0.4-2.7,3.8-1.1s28.1,4.5,30.7,4.6s21.6,0.5,26.2-0.6s5.9-1.9,3.3-6.1s-8.6-9.2-12-12
		c-3.6-3-10-7.7-10-9.7c0,0-5.8-1.8-10.6-8.2c-4.8-6.4-2.5-14,9.5-15.2c0,0,2.1,0.7-0.9,1.3s-13.5,5.8-6.8,9.1
		c6.7,3.3,15.2,8.5,37.5,2c0,0,3.6-1.2,0.8-6s-6.8-10-9.6-12.3c0,0-20.6-3.6-32.2-11.9s-18.9-19.5-20.4-22s-3.1-13.5,4.8-18l2.5,0.6
		c0,0-4.3,0.7-6.2,7.6c-0.8,2.8,0.1,5.8,1.4,8.5c1.9,3.9,4.9,7.2,8.5,9.8c3.7,2.6,9.6,6.6,14.3,9c0,0,3.6-4.6,2.9-13.6
		s-0.4-8.7-0.4-8.7l2.7,2.6c0,0,0.6,11.1-0.7,14.5c-1.3,3.4-2.6,6-2.6,6s8.9,3.6,17.5,4.6s18.3,2.4,20.4,3.7c0,0-12.2-8.5-11.4-24.2
		l2.5,0.3c0,0-1.3,8.1,3.8,15.2c5.1,7.1,8.6,9.6,8.6,9.6s9.9,1,10.8,3.3s1.6,7.1,1,8.5s-1.1,2-4.5,0.6s-15.2-4.5-19.1-4.6
		c0,0,6.6,7.3,8.2,12.6c0.4,1.4,0.6,2.7,0.7,3.9c0.3,4.1-1.4,8.1-4.6,10.6c-4.1,3.1-11.6,6-24.9,2.2c-0.1,0-0.2-0.1-0.3-0.1
		c0,0,9.4,7.1,11.5,9.3c2.2,2.2,11.4,8.7,10.8,16.1s-8.5,10.3-13.3,10.8c-4.8,0.4-34.9,0.4-47.1-4.2c0,0,14.6,10.7,16.2,11.6
		c1.6,0.9,12.2,4.9,12,12c-0.1,7.1-4.2,7.9-12.2,8.3c0,0,12.9,12.9,16,16.2s15.6,13.9,14,22.1c-1.6,8.2-4.7,11.8-11.6,12.6
		s-24.7-1.8-30.5-3c-5.9-1.2-16.1-1.6-17.8,4.9c-1.6,6.1,14.7,19.2,22.7,22.8c1.5,0.7,2.9,1.7,3.8,3.1c0.9,1.3,1.6,3,1.3,5
		c-0.6,4.5-0.7,5.8-6.5,4.7c-5.7-1.1-15.4-3.9-17.8-4.3c0,0,10.8,11.2,12.2,16.3c1.3,5.1,2.5,11.4,0.1,16.9
		c-2.4,5.6-10.1,9.9-26.2,8.5s-24-6.2-24-6.2s-4.5,9.8-11.2,16.4c-6.7,6.7-15.3,14.1-17,15.5s-8.6,5.6-9.8,7.6s-4.6,6.6-4.7,7.4
		l-1.4-2.1c0,0,3-5.2,4.6-7.1c0,0,4.5-4.9,9.6-7.9c5-3.1,7.8-6.8,11.5-9.5c5.6-4.1,13.3-15.4,16.8-21.3c0,0-7-4.8-5.4-12.1
		s10.9-7.4,11.2-5.8c0,0-9.3,2.7-9.1,6.2s14.6,6.3,14.6,6.3s13,1.6,20.4,1.7c7.4,0.1,15.5-1.5,15.5-1.5s3.2-0.4,3.4-3.8
		c0.2-3.4,0.1-12.2-16.3-27.4c0,0-37.5-11-46.7-17.1s-21.8-12.6-27.1-24.1c-5-10.8-0.9-15.8,3-16.9c0,0,7.8-3,13.7,3.3
		c0,0,8.5,8.8,9.1,17.8c0.4,7-0.4,11.5-0.4,11.5l-2.2-0.4c0,0,1.6-9.4-0.4-14.7s-4.4-12.3-11.7-15.7c-7.2-3.3-12,3.4-12.1,5.8
		c-0.1,2.4,0.7,8,9.4,15.4c0,0,7.8,6.9,19.7,10.9C205.4,597,205.4,597,205.4,597"/>
	<path class="st13" d="M264.7,512.4c2.7,1.7,5.9,3.8,8.3,5.1s8.7,6.1,7.8,7.7c-0.9,1.5-11.9,2.2-16,0.7c-4.2-1.5-8.9-1.5-8.7-5.3
		c0,0-0.4-2.4,2.1-4.8C260.6,513.2,262.7,511.1,264.7,512.4z"/>
	<path class="st11" d="M329,363"/>
	<g>
		<path class="st11" d="M286.2,358.3c0,0,34.9,0.8,34.3,0.9l-20.9,12C299.7,371.3,288.5,362.9,286.2,358.3z"/>
		<g>
			<g>
				<polygon class="st14" points="245.8,217.5 244.6,176.3 270.8,176.8 				"/>
				<path class="st14" d="M217.9,178.1l25.3,42.1L195,195.1C195,195.1,210.9,182,217.9,178.1z"/>
				<polygon class="st14" points="247.8,220.2 302.1,220.2 331.2,179.9 				"/>
				<polygon class="st14" points="331.2,260.6 332.9,181.8 351.6,221.5 				"/>
				<polygon class="st14" points="334.6,179.9 400,219.8 352.9,219.8 				"/>
				<path class="st14" d="M401.3,222.2L377.6,266l-46.4-0.6c0,0-0.8-1.8,1.4-3.2C334.9,260.6,401.3,222.2,401.3,222.2z"/>
				<path class="st14" d="M249.4,226.1l25.5,39.1l49.8,0.8C324.7,266,283.6,242.9,249.4,226.1z"/>
				<polygon class="st14" points="320.1,267.4 274.1,266.9 244.9,311.1 				"/>
				<path class="st14" d="M157,262c0-0.6,32.3-39.8,32.3-39.8h51.2L157,262z"/>
				<polygon class="st14" points="159.2,266 237.8,308.6 213.1,266.9 				"/>
				<path class="st14" d="M244.1,320.1v27.5c0,0,5.5,0.2,7.5-0.2c2.1-0.4,6.8-1.3,6.8-1.3L244.1,320.1z"/>
				<path class="st14" d="M240.5,312.7v0.7l-33.8,20c-0.9-0.6-1.6-1.2-2.2-1.7c-3.1-2.6-9.5-7-20-3.9c-3.9,1.1-7.7,1.6-11.1,1.7
					l7.8-17.5L240.5,312.7z"/>
				<polygon class="st14" points="325.7,355 304.9,313.1 246,312.5 				"/>
				<path class="st14" d="M332.7,269.9l18.9,42.6h46.9C398.5,312.5,335.1,271.5,332.7,269.9z"/>
				<polygon class="st14" points="331.5,353.1 353.3,314.5 396.6,314.5 				"/>
				<path class="st14" d="M399.7,315.1c0,0-20.4,42.8-20.7,42.8s-48.5,0-48.5,0l0.5-2.2L399.7,315.1z"/>
				<polygon class="st14" points="329.4,359.3 347.1,396 400,396 				"/>
			</g>
			<g>
				<polygon class="st15" points="330.6,269.9 350.5,316.1 329.6,354 				"/>
				<g>
					<g>
						<polygon class="st15" points="182.9,206.1 190.4,219.9 238.5,219.9 193.6,196.4 						"/>
						<polygon class="st15" points="248.6,218.2 331.2,178.1 274.4,176.9 272.3,176.8 246.9,218.8 						"/>
						<polygon class="st15" points="332.7,260.6 354.2,221.2 399.6,221.2 						"/>
						<polygon class="st15" points="247.8,222.2 327.9,265.2 326.9,263.1 303.4,222.2 						"/>
						<path class="st15" d="M245.6,224.6l-1.5,85.7l28.8-44.3C272.9,266,248.9,225.9,245.6,224.6z"/>
						<polygon class="st15" points="247.3,311.1 303.5,312 327.9,267.6 322.3,267.6 						"/>
						<polygon class="st15" points="157.7,263.8 212.8,265.2 241.8,223 						"/>
						<polygon class="st15" points="157.7,266.9 182.8,310.3 238.9,311.1 						"/>
						<path class="st15" d="M241.3,313.9l-32.7,20.7c0,0,5.2,4,14.2,6L241.3,313.9z"/>
						<path class="st15" d="M244.1,317.3v-4.1L326,357l-42.4-0.5c0,0-13.3-11.7-22.6-10.1L244.1,317.3z"/>
						<polygon class="st15" points="401.3,312 334.8,267.6 378.3,267.6 						"/>
						<polygon class="st15" points="332.4,359.3 380.5,360.2 401.2,394.5 						"/>
						<path class="st15" d="M329,363.7l0.4,20c0,0,5.3,3.6,8.5,7.6s7.7,6.9,7.7,6.9L329,363.7z"/>
					</g>
				</g>
			</g>
		</g>
	</g>
	<path class="st16" d="M427.7,466.6c3.7-10.6-5.3-13.5-7.3-13.1c-1.9,0.5-6.1,1.9-8.6-1.1c-2.1-2.7-3.1-2.3-6.7-2
		c-0.2,0-0.3,0-0.5,0c-0.4,0-0.7,0-1.2,0.1c-5,0.2-12.3-1.3-17.8-5.2c-5.5-3.9-27.5-4.5-27.5-4.5c-20.2-1.6-16.8-7.1-28.3-20.9
		c-11.5-13.7-22.9-11-30.7-10.3c-7.8,0.6-11.3-5.6-20.5-13.4s-21.8-8.4-21.8-8.4c-3.4,0-14.8-0.5-18.4-2.6c-3.6-2.1-16.1-2-24.2-1.2
		c-8.1,0.7-20.4-6.4-23.5-13.3c-3.2-6.9-9.3-3.9-13.1-4s-3.7-4.8-12-3.7c-3.3,0.4-6.7,0.1-9.6-0.5c-0.3-0.1-0.7-0.1-1-0.2
		c-3.9-0.9-6.6-2.1-6.6-2.1c-7.7-3.2-7.8-14.5-1.6-25.2c2.3-4,5.3-5.9,8-6.6c0.2-0.1,0.5-0.1,0.7-0.2c4.3-0.9,8,0.7,8,0.7
		s10.5,2.1,21-1s17,1.3,20,3.9c3.1,2.6,9.7,6.6,12.8,7.3c3.7,0.8,11.8,3.7,14.7,5.2s12.1,5.5,23.1,2.6s25.2,4.9,33.6,15
		s21.8,15.2,21.8,15.2c14.9,4.4,19.6,5.5,26.7,13.6s17.8,14.2,22.3,15.5s8.4-0.6,18.9,5.7c10.5,6.3,11.6,5.8,18.3,6
		c4.8,0.1,5.2,2.4,7.9,4.6c0.1,0.1,0.2,0.2,0.3,0.3c1,0.7,2.4,1.5,4.3,2.1c7.8,2.4,15.2,10.2,16.5,12.6s0.5,4.5,4.4,11
		C433.9,454.5,428,466,427.7,466.6z"/>
	<path class="st17" d="M149.7,241.4c-1-2-3.7-5.4-6-8.5c-2.3-3-18.3-22.4-18.3-22.4c-2.1-2.6,0.8-5.7,0.8-5.7
		c15.3-21.2,39.9-41,63.2-58.2s48.4-25.5,48.4-25.5c3.1-1.2,5.5-1.7,7.3-2c2.4-0.3,4.8,0.7,6.2,2.7c3.7,5.3,12.2,17.2,16.7,22.9
		c5.8,7.4,5,11.6,5,11.6c-4.1-6.8-10.1-4.8-47,16.5s-64,54.2-71.7,62.3c0,0-4.5,3.3-3.3,7.9L149.7,241.4z"/>
	<path class="st18" d="M131.2,217.5c-0.3-0.3,30.6-36.5,56.5-52.8c23.7-15,45-33.4,68.9-35.4l-4.3-6c0,0-25.6,2.3-69.3,35.2
		c-43.3,32.6-45.4,39.7-56.1,53.8L131.2,217.5z"/>
	<path class="st18" d="M145.8,235.7c0,0,27.9-33.3,55.8-53.5s54.2-36.9,68.1-34.8l-6.5-8.8c0,0-25.4,6.8-67.1,39.6
		s-50.7,46.3-54.6,52.1L145.8,235.7z"/>
	<path class="st7" d="M241.7,119.8c0,0-9-11.7-5.7-33.6c3.2-22-13.9-51.7-30.2-62.4s-45.3-10-64.1,8.1c0,0-42.3-4.7-55.6,36.4
		c0,0-42.3,7.6-38.4,54.9c0,0-23.3,28.8-1.6,63.9s52,22.5,57.2,21.1c5.2-1.5,13.9-6.6,23.1-3.4"/>
	<g>
		<path class="st19" d="M141.7,31.4c0,0,0.2,0,0.5,0.1s0.8,0.2,1.3,0.4c0.6,0.2,1.2,0.4,2,0.7s1.6,0.6,2.6,1C149,34,150,34.5,151,35
			s2.1,1.2,3.2,1.8c1,0.7,2.2,1.4,3.2,2.2c0.5,0.4,1,0.8,1.6,1.2l1.5,1.4c1,0.9,1.9,1.9,2.8,2.9l0.7,0.7l0.6,0.8
			c0.4,0.5,0.8,1,1.2,1.5c0.2,0.2,0.4,0.5,0.6,0.7c0.2,0.3,0.3,0.5,0.5,0.8c0.3,0.5,0.6,1,0.9,1.5c0.7,0.9,1.1,1.9,1.6,2.8
			c0.4,0.9,0.9,1.7,1.2,2.5s0.5,1.4,0.8,2c0.4,1.1,0.7,1.7,0.7,1.7s-0.3-0.6-0.7-1.7c-0.2-0.5-0.5-1.2-0.8-1.9
			c-0.3-0.8-0.8-1.5-1.2-2.4c-0.5-0.9-0.9-1.9-1.6-2.8c-0.3-0.5-0.6-1-1-1.5c-0.2-0.2-0.3-0.5-0.5-0.8c-0.2-0.2-0.4-0.5-0.6-0.7
			c-0.4-0.5-0.8-1-1.2-1.5l-0.6-0.8l-0.7-0.7c-0.9-0.9-1.8-1.9-2.8-2.8l-1.5-1.3c-0.5-0.4-1.1-0.8-1.6-1.2c-1-0.8-2.1-1.4-3.2-2.1
			c-1.1-0.6-2.1-1.2-3.1-1.7s-2-1-2.9-1.3c-0.9-0.4-1.8-0.7-2.5-1c-0.8-0.2-1.4-0.5-2-0.6c-0.6-0.2-1-0.3-1.3-0.3
			c-0.3-0.1-0.5-0.1-0.5-0.1L141.7,31.4z"/>
	</g>
	<g>
		<path class="st19" d="M85.9,67.9c0,0,1.8-0.6,4.5-1.2c1.4-0.3,3-0.6,4.7-0.8c0.9-0.1,1.8-0.2,2.7-0.3c0.9-0.1,1.8-0.2,2.8-0.2
			c0.9,0,1.9-0.1,2.8,0c0.9,0,1.8,0,2.7,0.1c0.4,0,0.9,0.1,1.3,0.1c0.4,0.1,0.8,0.1,1.2,0.2c0.8,0.1,1.5,0.2,2.2,0.4
			c0.7,0.1,1.3,0.3,1.8,0.4c0.5,0.2,1,0.3,1.4,0.4c0.8,0.2,1.2,0.4,1.2,0.4s-0.4-0.1-1.2-0.3c-0.4-0.1-0.9-0.2-1.4-0.4
			c-0.6-0.1-1.2-0.2-1.9-0.3c-0.7-0.1-1.4-0.2-2.2-0.3c-0.4,0-0.8-0.1-1.2-0.1c-0.4,0-0.8,0-1.3-0.1c-0.9-0.1-1.7-0.1-2.7,0
			c-0.9,0-1.8,0.1-2.7,0.1c-0.9,0-1.8,0.2-2.7,0.3c-0.9,0.1-1.8,0.2-2.6,0.4c-1.7,0.3-3.3,0.6-4.6,1C88,68.4,86.3,69,86.3,69
			L85.9,67.9z"/>
	</g>
	<g>
		<path class="st19" d="M48.1,123.2c0,0,0.1,0.8,0.2,1.9c0.2,1.1,0.5,2.7,0.8,4.2c0.2,0.7,0.4,1.5,0.6,2.2c0.2,0.7,0.5,1.3,0.7,1.8
			c0.3,0.5,0.5,1,0.7,1.2c0.2,0.3,0.3,0.5,0.3,0.5s-0.1-0.2-0.3-0.4c-0.2-0.3-0.5-0.7-0.8-1.2s-0.6-1.1-0.9-1.8
			c-0.3-0.7-0.6-1.4-0.8-2.1c-1-3-1.6-6.1-1.6-6.1L48.1,123.2z"/>
	</g>
	<g>
		<path class="st19" d="M203.5,45.7c0,0,1.8,2.4,3.7,6.5c0.5,1,1,2.1,1.4,3.3c0.5,1.2,0.9,2.5,1.4,3.8c0.2,0.7,0.4,1.4,0.6,2.1
			c0.2,0.7,0.3,1.4,0.5,2.2c0.1,0.7,0.3,1.5,0.4,2.2c0.1,0.7,0.2,1.5,0.3,2.3c0.1,1.5,0.2,3.1,0.1,4.5c0,1.5-0.1,2.9-0.1,4.3
			c-0.1,2.8-0.2,5.4-0.3,7.6c-0.2,4.5-0.6,7.4-0.6,7.4s-0.3-3-0.6-7.4c-0.1-2.2-0.2-4.8-0.3-7.6c0-1.4-0.1-2.8-0.1-4.3
			s-0.1-2.9-0.2-4.3c-0.1-0.7-0.1-1.4-0.2-2.2c-0.1-0.7-0.2-1.4-0.4-2.1c-0.1-0.7-0.3-1.4-0.4-2.1c-0.2-0.7-0.3-1.4-0.5-2
			c-0.4-1.3-0.7-2.6-1.1-3.8c-0.4-1.2-0.7-2.3-1.1-3.4C204.7,48.5,203.5,45.7,203.5,45.7z"/>
	</g>
	<g>
		<path class="st19" d="M227.8,61.6c0,0,1.1,1.8,2.1,4.7c0.3,0.7,0.5,1.5,0.8,2.4c0.2,0.9,0.5,1.8,0.6,2.7c0.2,1,0.3,2,0.4,3
			c0.1,1,0.1,2.1,0.1,3.1s-0.1,2.1-0.2,3c-0.1,1-0.2,2-0.3,2.9c-0.2,1.9-0.5,3.7-0.8,5.2s-0.6,2.8-0.8,3.6c-0.2,0.9-0.5,1.3-0.5,1.3
			s0-0.1,0-0.4c0-0.2,0-0.6,0-1c0-0.9,0-2.2,0.1-3.7c0-1.5,0.1-3.3,0.1-5.2c0.1-1.9,0.1-3.9,0.2-5.9c0-1,0-2,0-2.9
			c-0.1-1-0.1-1.9-0.2-2.8c-0.1-0.9-0.2-1.8-0.4-2.7c-0.1-0.9-0.3-1.7-0.4-2.4C228.2,63.6,227.8,61.6,227.8,61.6z"/>
	</g>
	<g>
		<path class="st19" d="M225.7,88.5c0,0,0,2.3,0,5.7c0,0.8,0,1.8,0,2.7c0,1,0.1,2,0.1,3c0,0.5,0.1,1.1,0.1,1.6s0.1,1.1,0.1,1.6
			c0.1,1.1,0.2,2.2,0.4,3.3c0.2,1.1,0.3,2.1,0.6,3.3c0.3,1.1,0.5,2.1,0.8,3.1s0.6,2,0.9,2.9c0.3,0.9,0.7,1.7,1,2.5
			c1.3,3.1,2.5,5.1,2.5,5.1s-0.4-0.4-1.1-1.2c-0.6-0.8-1.5-1.9-2.4-3.4c-0.4-0.7-0.9-1.6-1.3-2.5c-0.4-0.9-0.9-1.9-1.2-2.9
			c-0.4-1-0.7-2.1-1-3.2s-0.5-2.3-0.7-3.4c-0.1-1.2-0.2-2.3-0.3-3.4s0-2.3,0-3.3c0.1-2.2,0.2-4.2,0.5-5.8
			C225,90.7,225.7,88.5,225.7,88.5z"/>
	</g>
	<g>
		<path class="st19" d="M216.5,71.3c0,0,0.8,3,1.3,7.6c0.1,1.1,0.2,2.4,0.3,3.7c0.1,1.3,0.1,2.7,0,4.2c0,1.4-0.1,2.9-0.2,4.5
			c-0.1,1.5-0.3,3.1-0.6,4.6c-0.2,1.5-0.5,3-0.8,4.5s-0.6,2.9-0.8,4.3c-0.6,2.8-1.1,5.4-1.5,7.6c-0.2,1.1-0.3,2.1-0.3,3.1
			c-0.1,0.9-0.1,1.7,0,2.4c0,0.7,0.1,1.2,0.1,1.5c0,0.4,0.1,0.5,0.1,0.5s-0.1-0.2-0.2-0.5c-0.1-0.3-0.3-0.8-0.4-1.5
			c-0.1-0.7-0.3-1.5-0.3-2.4c-0.1-0.9-0.1-2,0-3.2c0.1-2.3,0.4-5,0.9-7.8c0.4-2.8,0.9-5.8,1.4-8.8c0.2-1.5,0.5-3,0.6-4.5
			c0.2-1.5,0.3-2.9,0.4-4.3c0.1-1.4,0.2-2.8,0.2-4.1c0-1.3,0.1-2.5,0.1-3.7C216.6,74.4,216.5,71.3,216.5,71.3z"/>
	</g>
	<g>
		<path class="st19" d="M189,61.6c0,0,0.1,0.3,0.3,0.8s0.5,1.2,0.7,2.2c0.3,1,0.6,2.1,1,3.5c0.4,1.3,0.7,2.9,1.1,4.6
			c0.3,1.7,0.7,3.5,0.9,5.5c0.3,2,0.5,4,0.7,6.2c0.1,1.1,0.1,2.2,0.2,3.3c0.1,1.1,0.1,2.2,0,3.4c0,2.2-0.1,4.5,0,6.8
			c0,2.3,0.1,4.5,0.2,6.7c0.1,2.2,0.2,4.4,0.4,6.5s0.4,4.2,0.6,6.1c0.1,1,0.2,1.9,0.4,2.8c0.1,0.9,0.3,1.8,0.4,2.6
			c0.1,0.8,0.3,1.6,0.5,2.4c0.1,0.8,0.3,1.5,0.5,2.1c0.1,0.7,0.3,1.3,0.5,1.9s0.3,1.1,0.5,1.6s0.3,0.9,0.4,1.3
			c0.1,0.4,0.3,0.7,0.4,0.9c0.2,0.5,0.3,0.8,0.3,0.8s-0.1-0.2-0.4-0.7c-0.3-0.5-0.6-1.2-1-2.1c-0.2-0.5-0.4-1-0.6-1.5
			c-0.2-0.6-0.5-1.2-0.7-1.8c-0.5-1.3-0.9-2.8-1.3-4.5c-0.4-1.7-0.8-3.5-1.2-5.4s-0.7-4-0.9-6.1s-0.5-4.3-0.6-6.6
			c-0.1-2.3-0.2-4.5-0.2-6.8s0.1-4.6,0.1-6.8c0-2.2,0.1-4.4,0-6.5c-0.2-4.2-0.5-8.2-1-11.5c-0.5-3.4-0.9-6.2-1.3-8.1
			C189.3,62.7,189,61.6,189,61.6z"/>
	</g>
	<g>
		<path class="st19" d="M182.8,83c0,0,1.2,3.6,2.2,9.2c0.5,2.8,1,6.1,1.3,9.6c0,0.4,0.1,0.9,0.1,1.3v0.6l0.1,0.7
			c0,0.4,0.1,0.9,0.1,1.4c0.1,0.4,0.1,0.9,0.2,1.3c0.3,1.8,0.7,3.6,1.1,5.4c0.5,1.8,1,3.6,1.5,5.3c0.6,1.7,1.1,3.5,1.7,5.1
			c0.6,1.6,1.2,3.2,1.8,4.7c0.6,1.5,1.2,2.9,1.7,4.2c0.6,1.3,1.1,2.5,1.6,3.5s0.9,1.9,1.3,2.7c0.7,1.5,1.2,2.3,1.2,2.3
			s-0.1-0.2-0.4-0.5c-0.3-0.4-0.7-0.8-1.1-1.5c-0.5-0.7-1-1.5-1.6-2.5s-1.3-2.1-1.9-3.3c-0.7-1.2-1.4-2.6-2.1-4.1
			c-0.7-1.5-1.4-3-2.1-4.7c-0.7-1.6-1.3-3.4-1.9-5.1c-0.6-1.8-1.1-3.6-1.6-5.4c-0.4-1.9-0.8-3.7-1.1-5.6c-0.1-0.5-0.1-1-0.2-1.4
			c0-0.5-0.1-0.9-0.1-1.4v-0.7v-0.7c0-0.4,0-0.9,0-1.3c-0.1-1.7-0.1-3.4-0.3-5c-0.1-1.6-0.3-3.1-0.4-4.5
			C183.3,86.8,182.8,83,182.8,83z"/>
	</g>
	<g>
		<path class="st19" d="M126.8,82c0,0,0.3,0.2,0.7,0.6c0.5,0.4,1.1,1,1.9,1.9c0.8,0.8,1.7,1.9,2.7,3.2c1,1.3,2.1,2.7,3.1,4.4
			c1.1,1.7,2.1,3.5,3.1,5.6c0.5,1,1,2.1,1.5,3.2s0.9,2.2,1.4,3.4c0.8,2.3,1.7,4.7,2.6,7.1c0.5,1.2,0.9,2.4,1.4,3.5
			c0.5,1.2,1,2.4,1.6,3.5c0.6,1.2,1.1,2.3,1.7,3.5c0.6,1.1,1.2,2.3,1.9,3.3c0.6,1.1,1.3,2.2,2,3.2c0.7,1.1,1.4,2.1,2.1,3
			c1.4,2,2.9,3.8,4.3,5.5c0.7,0.8,1.5,1.6,2.2,2.4c0.7,0.8,1.4,1.5,2.1,2.1c1.4,1.3,2.7,2.5,4,3.5c1.2,1,2.3,1.8,3.2,2.5
			s1.7,1.2,2.2,1.5s0.8,0.5,0.8,0.5s-0.3-0.2-0.8-0.4c-0.5-0.3-1.4-0.7-2.3-1.3c-1-0.6-2.2-1.3-3.5-2.3c-1.3-0.9-2.8-2-4.3-3.3
			c-0.7-0.7-1.5-1.3-2.3-2.1c-0.8-0.7-1.6-1.5-2.3-2.3c-1.6-1.7-3.1-3.5-4.6-5.4c-0.7-1-1.5-2-2.2-3.1c-0.4-0.5-0.7-1.1-1.1-1.6
			c-0.3-0.6-0.7-1.1-1-1.7c-0.7-1.1-1.3-2.3-1.9-3.4c-0.7-1.1-1.2-2.3-1.8-3.5s-1.1-2.4-1.6-3.6s-1-2.5-1.4-3.7
			c-0.9-2.4-1.6-4.8-2.4-7.1c-0.4-1.1-0.9-2.2-1.3-3.3c-0.5-1.1-0.9-2.1-1.3-3.2c-0.5-1-0.9-2-1.4-2.9s-0.9-1.8-1.4-2.7
			c-1.8-3.4-3.7-6.1-5.1-7.9c-0.7-0.9-1.3-1.6-1.7-2C127,82.2,126.8,82,126.8,82z"/>
	</g>
	<g>
		<path class="st19" d="M103.7,91.9c0,0,0.3,0.2,0.8,0.5s1.2,0.8,2.1,1.6c0.9,0.7,1.9,1.6,3.1,2.6c1.1,1.1,2.4,2.3,3.8,3.7
			c1.3,1.4,2.7,3,4.1,4.7s2.8,3.6,4.1,5.6c0.6,1,1.4,2,2.1,3c0.7,0.9,1.5,1.9,2.3,2.9c0.8,0.9,1.6,1.9,2.4,2.8
			c0.9,0.9,1.7,1.9,2.6,2.8c1.7,1.8,3.5,3.6,5.4,5.3c0.9,0.8,1.8,1.7,2.7,2.5c0.9,0.8,1.8,1.6,2.7,2.4c1.8,1.5,3.6,3,5.3,4.4
			c0.8,0.7,1.7,1.3,2.5,1.9c0.8,0.6,1.6,1.2,2.4,1.8c1.5,1.1,3,2.1,4.3,2.9c1.3,0.8,2.5,1.5,3.5,2c0.5,0.2,0.9,0.5,1.3,0.7
			c0.4,0.2,0.7,0.3,1,0.4c0.6,0.2,0.9,0.3,0.9,0.3s-0.3-0.1-0.9-0.2c-0.6-0.2-1.4-0.4-2.5-0.8c-1.1-0.4-2.3-1-3.7-1.7
			s-2.9-1.6-4.6-2.6c-1.6-1-3.4-2.2-5.2-3.5s-3.6-2.7-5.5-4.2c-0.9-0.8-1.9-1.6-2.8-2.3c-0.9-0.8-1.9-1.6-2.8-2.5
			c-1.9-1.7-3.7-3.5-5.5-5.4c-0.9-0.9-1.7-1.9-2.6-2.8c-0.9-1-1.7-2-2.5-2.9c-0.8-1-1.6-2-2.3-3c-0.7-1-1.3-2-2-3.1
			c-1.3-2-2.5-3.9-3.8-5.7c-1.3-1.8-2.5-3.4-3.8-4.8c-2.4-2.9-4.6-5.2-6.2-6.8c-0.8-0.8-1.4-1.4-1.9-1.8
			C104,92.1,103.7,91.9,103.7,91.9z"/>
	</g>
	<g>
		<path class="st19" d="M130.1,133.3c0,0,0.5,0.6,1.4,1.6c0.5,0.5,1,1.1,1.7,1.8c0.6,0.7,1.4,1.4,2.2,2.2s1.8,1.6,2.7,2.5
			c1,0.9,2,1.8,3.1,2.7c0.6,0.5,1.1,0.9,1.7,1.4c0.6,0.4,1.2,0.9,1.8,1.4c1.2,1,2.4,1.8,3.7,2.7c1.2,0.9,2.5,1.7,3.8,2.6
			c1.3,0.8,2.5,1.6,3.8,2.3c1.2,0.7,2.5,1.4,3.6,2c1.1,0.7,2.3,1.2,3.3,1.7s2,1.1,2.8,1.4c0.9,0.4,1.6,0.7,2.2,1
			c1.2,0.6,1.9,0.9,1.9,0.9s-0.7-0.2-2.1-0.6c-0.7-0.2-1.4-0.4-2.4-0.7c-0.9-0.2-1.9-0.7-3-1.1c-1.1-0.4-2.3-0.8-3.5-1.4
			c-1.2-0.6-2.5-1.1-3.8-1.8s-2.6-1.4-3.9-2.2c-1.3-0.8-2.6-1.6-3.9-2.6c-1.3-0.9-2.5-1.8-3.7-2.8c-0.6-0.5-1.2-1-1.8-1.5
			s-1.1-1-1.7-1.5c-1.1-1-2.1-2-3-3s-1.8-1.9-2.5-2.8c-0.8-0.9-1.4-1.7-2-2.5s-1-1.5-1.4-2C130.4,134,130.1,133.3,130.1,133.3z"/>
	</g>
	<g>
		<path class="st19" d="M146,156.3c0,0,0.3,0,0.9,0.2c0.6,0.2,1.4,0.4,2.3,0.7c1,0.3,2,0.8,3.2,1.3s2.4,1,3.6,1.6
			c1.2,0.6,2.4,1.2,3.5,1.8s2.1,1.1,3,1.6s1.6,0.9,2.1,1.2s0.8,0.4,0.8,0.4s-0.3,0-0.9,0c-0.6-0.1-1.5-0.2-2.4-0.5
			c-2-0.5-4.5-1.5-6.9-2.6c-1.2-0.6-2.4-1.2-3.5-1.8s-2.1-1.2-2.9-1.8c-0.8-0.6-1.5-1.1-2-1.4C146.3,156.5,146,156.3,146,156.3z"/>
	</g>
	<g>
		<path class="st19" d="M70.3,147.5c0,0,0.9,0.8,2.6,2.2c1.6,1.4,4,3.4,6.9,5.7c1.5,1.2,3,2.4,4.7,3.7s3.5,2.5,5.4,3.8
			c1.9,1.2,4,2.4,6.1,3.5c2.2,1,4.5,2.1,6.7,3.3c2.2,1.1,4.4,2.3,6.5,3.6c2.1,1.2,4.2,2.5,6.1,3.8c2,1.3,3.8,2.6,5.5,3.9
			c1.7,1.3,3.3,2.6,4.7,3.8c0.7,0.6,1.4,1.2,2,1.8s1.1,1.2,1.7,1.8c1,1.2,1.8,2.2,2.4,3.1c0.3,0.5,0.6,0.9,0.8,1.2
			c0.2,0.4,0.3,0.7,0.5,1c0.2,0.5,0.4,0.8,0.4,0.8s-0.2-0.3-0.5-0.8c-0.2-0.2-0.3-0.5-0.6-0.9c-0.2-0.4-0.6-0.7-0.9-1.1
			c-0.6-0.9-1.6-1.8-2.6-2.8c-0.6-0.5-1.2-1-1.8-1.6c-0.6-0.5-1.3-1.1-2.1-1.7c-1.5-1.1-3.1-2.3-4.8-3.5c-1.7-1.2-3.6-2.4-5.6-3.6
			c-2-1.2-4.1-2.4-6.2-3.6c-2.1-1.2-4.3-2.3-6.5-3.5c-2.2-1.1-4.4-2.2-6.6-3.3c-2.3-1.1-4.3-2.4-6.3-3.7c-1.9-1.3-3.7-2.7-5.4-4.1
			c-1.7-1.3-3.2-2.7-4.6-4c-2.8-2.5-4.9-4.8-6.4-6.3C71.1,148.4,70.3,147.5,70.3,147.5z"/>
	</g>
	<g>
		<path class="st19" d="M55.2,140.2c0,0,0.4,0.6,1.1,1.6c0.4,0.5,0.8,1.1,1.3,1.8s1.1,1.5,1.7,2.3c0.6,0.8,1.4,1.7,2.1,2.7
			c0.8,0.9,1.6,1.9,2.5,2.9c0.9,1,1.8,2,2.8,3c0.5,0.5,1,1,1.5,1.5s1,1,1.5,1.4c1,0.9,2.1,1.9,3.2,2.8c1.1,0.9,2.1,1.8,3.1,2.7
			s2,1.7,2.9,2.5s1.8,1.6,2.6,2.2c1.6,1.4,3,2.4,4.1,3s1.7,0.9,1.7,0.9s-0.2,0-0.5-0.1s-0.8-0.2-1.4-0.4c-1.2-0.4-2.8-1.3-4.6-2.5
			c-1.8-1.2-3.8-2.7-5.9-4.4s-4.3-3.5-6.4-5.4c-0.5-0.5-1.1-1-1.6-1.5s-1-1-1.5-1.5c-1-1-1.9-2.1-2.7-3.2c-0.9-1-1.6-2.1-2.3-3.1
			s-1.3-2-1.9-2.9C56.1,142.9,55.2,140.2,55.2,140.2z"/>
	</g>
	<g>
		<path class="st19" d="M104.4,181c0,0,2.1,0.1,5.1,0.8c0.8,0.2,1.6,0.4,2.4,0.7s1.8,0.6,2.7,0.9c0.9,0.4,1.8,0.8,2.8,1.3
			c0.9,0.5,1.8,1,2.7,1.7c0.4,0.3,0.9,0.7,1.3,1c0.4,0.4,0.8,0.7,1.2,1.2c0.3,0.4,0.7,0.9,1,1.3c0.3,0.4,0.5,0.8,0.8,1.2
			c0.5,0.7,1.1,1.4,1.7,2.1c0.6,0.6,1.1,1.2,1.7,1.7c2.2,2,4.1,3,4.1,3s-0.5-0.1-1.4-0.4c-0.9-0.3-2.1-0.8-3.4-1.7
			c-0.7-0.4-1.4-0.9-2-1.6c-0.7-0.6-1.4-1.3-2-2.1c-0.3-0.4-0.6-0.8-0.9-1.2l-0.2-0.3l-0.2-0.3l-0.4-0.5c-0.3-0.3-0.7-0.6-1-1
			c-0.4-0.3-0.8-0.6-1.1-0.9c-0.8-0.6-1.6-1.1-2.5-1.6s-1.7-0.9-2.5-1.3c-1.7-0.8-3.3-1.5-4.7-2.1C106.3,181.8,104.4,181,104.4,181z
			"/>
	</g>
	<g>
		<path class="st19" d="M87.3,191.9c0,0,2.4,1.3,6.1,2.8c1.9,0.7,4.1,1.5,6.5,2.1c1.2,0.3,2.4,0.6,3.7,0.8c0.6,0.1,1.3,0.2,1.9,0.3
			s1.3,0.1,2,0.2c1.3,0.1,2.7,0.2,4,0.2c1.3,0.1,2.6,0.2,3.9,0.3c2.5,0.2,4.9,0.4,6.9,0.8c1,0.2,1.9,0.3,2.7,0.6
			c0.8,0.2,1.5,0.4,2.1,0.7c0.6,0.2,0.9,0.6,1.2,0.8c0.2,0.3,0.3,0.4,0.3,0.4s-0.1-0.1-0.3-0.3c-0.3-0.2-0.7-0.4-1.2-0.5
			c-0.6-0.2-1.3-0.2-2.1-0.3c-0.8-0.1-1.7-0.1-2.7-0.2c-2,0-4.4-0.1-6.9-0.2c-1.3,0-2.6,0-3.9-0.1s-2.6-0.1-4-0.2
			c-0.7-0.1-1.4-0.1-2.1-0.2c-0.7-0.1-1.4-0.2-2-0.3c-1.3-0.3-2.6-0.6-3.9-1c-2.5-0.8-4.6-1.8-6.4-2.8
			C89.3,193.8,87.3,191.9,87.3,191.9z"/>
	</g>
	<g>
		<path class="st19" d="M74.7,191.9c0,0,0.7,0.4,2,1.1c1.3,0.7,3.1,1.6,5.3,2.5c1.1,0.5,2.3,0.9,3.6,1.4c1.3,0.4,2.7,0.9,4.1,1.3
			c1.4,0.4,2.9,0.6,4.5,0.9c0.7,0.1,1.6,0.2,2.4,0.3s1.6,0.1,2.4,0.2c1.6,0.1,3.2,0.2,4.8,0.2c1.6,0,3.2,0.1,4.7,0.1
			c3,0.1,5.9,0.2,8.3,0.4c1.2,0.1,2.3,0.3,3.3,0.4c1,0.2,1.8,0.3,2.5,0.5c0.7,0.1,1.2,0.4,1.6,0.5s0.6,0.2,0.6,0.2s-0.2,0-0.6-0.1
			c-0.4,0-0.9-0.1-1.6-0.2c-0.7-0.1-1.6-0.1-2.5-0.2c-1,0-2.1,0-3.3,0c-2.4,0-5.2,0.1-8.3,0.2c-1.5,0-3.1,0.1-4.7,0.1
			s-3.2,0-4.9-0.1c-0.8,0-1.6-0.1-2.5-0.2c-0.8-0.1-1.6-0.2-2.4-0.3c-1.6-0.3-3.2-0.6-4.7-1.1c-1.5-0.4-2.9-1-4.2-1.6
			c-1.3-0.6-2.5-1.2-3.6-1.8c-2.2-1.2-3.8-2.4-5-3.2C75.3,192.4,74.7,191.9,74.7,191.9z"/>
	</g>
	<path class="st4" d="M222.9,706c0,0-0.6,44.7-1.2,53.4s-14.7,8.2-22.3,7.6c-7.5-0.6-12.8-24.7,1.5-27.6c14.2-2.9,19.2,2.6,19.2,2.6
		l0.2-35.9"/>
</g>
</svg>
